<svg id="Capa_1" enable-background="new 0 0 512 512" height="512" viewBox="0 0 512 512" width="512" xmlns="http://www.w3.org/2000/svg" xmlns:xlink="http://www.w3.org/1999/xlink"><linearGradient id="lg1"><stop offset="0" stop-color="#fff5c6"/><stop offset="1" stop-color="#fac600"/></linearGradient><linearGradient id="SVGID_1_" gradientUnits="userSpaceOnUse" x1="255.999" x2="255.999" xlink:href="#lg1" y1="203.307" y2="246.845"/><linearGradient id="lg2"><stop offset="0" stop-color="#fea613" stop-opacity="0"/><stop offset=".1766" stop-color="#fda116" stop-opacity=".177"/><stop offset=".3939" stop-color="#fa921d" stop-opacity=".394"/><stop offset=".6325" stop-color="#f4792a" stop-opacity=".633"/><stop offset=".8846" stop-color="#ed573b" stop-opacity=".885"/><stop offset="1" stop-color="#e94444"/></linearGradient><linearGradient id="SVGID_00000057137830704851152700000000467083835129265840_" gradientUnits="userSpaceOnUse" x1="255.999" x2="255.999" xlink:href="#lg2" y1="238.366" y2="182.05"/><linearGradient id="SVGID_00000158735557582350875920000009647928579953546687_" gradientUnits="userSpaceOnUse" x1="311.631" x2="278.839" xlink:href="#lg2" y1="219.69" y2="240.363"/><linearGradient id="SVGID_00000021117707847031232590000011128899097108272306_" gradientUnits="userSpaceOnUse" x1="91.769" x2="347.128" xlink:href="#lg1" y1="191.41" y2="446.769"/><linearGradient id="SVGID_00000060740735701382546830000002304911002736754093_" gradientUnits="userSpaceOnUse" x1="256.614" x2="124.645" xlink:href="#lg2" y1="258.374" y2="367.477"/><linearGradient id="SVGID_00000072966758362905003650000004267678170566958504_" gradientUnits="userSpaceOnUse" x1="315.016" x2="225.512" xlink:href="#lg2" y1="271.861" y2="280.354"/><linearGradient id="SVGID_00000150797201579897040380000014843309785274971583_" gradientUnits="userSpaceOnUse" x1="361.746" x2="297.068" xlink:href="#lg2" y1="369.804" y2="277.686"/><linearGradient id="SVGID_00000139988345349961177930000009459915247907282588_" gradientUnits="userSpaceOnUse" x1="250.405" x2="107.983" xlink:href="#lg2" y1="470.965" y2="298.49"/><linearGradient id="SVGID_00000150822701337872509940000008283375311253074834_" gradientUnits="userSpaceOnUse" x1="294.612" x2="344.917" xlink:href="#lg2" y1="473.325" y2="338.089"/><linearGradient id="SVGID_00000153675683679095312690000013376962919744902284_" gradientUnits="userSpaceOnUse" x1="364.278" x2="129.085" xlink:href="#lg2" y1="448.931" y2="416.266"/><linearGradient id="SVGID_00000160155978308875588030000015194807800940718266_" gradientUnits="userSpaceOnUse" x1="256" x2="256" xlink:href="#lg2" y1="388.372" y2="529.273"/><linearGradient id="SVGID_00000096029094600209658480000015991717344536927130_" gradientUnits="userSpaceOnUse" x1="215.942" x2="306.706" xlink:href="#lg1" y1="315.582" y2="406.346"/><linearGradient id="SVGID_00000114759643129801186610000009522575587072202421_" gradientUnits="userSpaceOnUse" x1="336.134" x2="109.717" xlink:href="#lg1" y1="435.775" y2="209.358"/><linearGradient id="SVGID_00000026841870885385011050000003637963904683710648_" gradientUnits="userSpaceOnUse" x1="256" x2="256" xlink:href="#lg2" y1="363.035" y2="477.331"/><linearGradient id="SVGID_00000040535083390909432330000008206942724219491000_" gradientUnits="userSpaceOnUse" x1="266.655" x2="343.474" xlink:href="#lg2" y1="366.296" y2="443.114"/><linearGradient id="SVGID_00000134936401523547824470000000743757070113404843_" gradientUnits="userSpaceOnUse" x1="357.55" x2="254.907" xlink:href="#lg2" y1="471.853" y2="369.21"/><linearGradient id="SVGID_00000085948978711570899960000000010362514663686810_" gradientUnits="userSpaceOnUse" x1="235.187" x2="282.345" xlink:href="#lg1" y1="349.483" y2="396.641"/><linearGradient id="SVGID_00000093158336781436823520000014165394593246833048_" gradientUnits="userSpaceOnUse" x1="256" x2="256" xlink:href="#lg2" y1="374.138" y2="433.522"/><linearGradient id="SVGID_00000046339134220843252220000002899676655538734778_" gradientUnits="userSpaceOnUse" x1="261.536" x2="301.448" xlink:href="#lg2" y1="375.832" y2="415.744"/><linearGradient id="SVGID_00000078044843925040158200000017635486336140681608_" gradientUnits="userSpaceOnUse" x1="306.284" x2="244.484" xlink:href="#lg2" y1="445.22" y2="345.265"/><linearGradient id="SVGID_00000155124428816402141920000001050883401492213912_" gradientUnits="userSpaceOnUse" x1="274.264" x2="262.979" xlink:href="#lg2" y1="333.505" y2="340.155"/><linearGradient id="SVGID_00000118389079105923177340000015489469570549135524_" gradientUnits="userSpaceOnUse" x1="205.341" x2="284.109" xlink:href="#lg1" y1="320.095" y2="398.863"/><linearGradient id="SVGID_00000034792359560361942990000016060128114483996348_" gradientUnits="userSpaceOnUse" x1="256.19" x2="215.482" xlink:href="#lg2" y1="340.751" y2="374.405"/><linearGradient id="SVGID_00000155852248607405957470000014555312635022663853_" gradientUnits="userSpaceOnUse" x1="274.204" x2="246.596" xlink:href="#lg2" y1="344.911" y2="347.531"/><linearGradient id="SVGID_00000178165854998479828590000003303429490872853148_" gradientUnits="userSpaceOnUse" x1="288.619" x2="268.668" xlink:href="#lg2" y1="375.123" y2="346.708"/><linearGradient id="SVGID_00000179608299134728395450000002802132868559694997_" gradientUnits="userSpaceOnUse" x1="254.274" x2="210.342" xlink:href="#lg2" y1="406.327" y2="353.125"/><linearGradient id="SVGID_00000056404875765905572140000005789039952850539904_" gradientUnits="userSpaceOnUse" x1="267.91" x2="283.427" xlink:href="#lg2" y1="407.055" y2="365.34"/><linearGradient id="SVGID_00000086683886715318684930000013642696401068155783_" gradientUnits="userSpaceOnUse" x1="289.4" x2="216.852" xlink:href="#lg2" y1="399.53" y2="389.454"/><linearGradient id="SVGID_00000171718357514231739860000007068958817393065119_" gradientUnits="userSpaceOnUse" x1="256" x2="256" xlink:href="#lg2" y1="380.85" y2="424.313"/><linearGradient id="SVGID_00000042000038421597232770000002546448765145808534_" gradientUnits="userSpaceOnUse" x1="202.08" x2="292.874" xlink:href="#lg2" y1="237.015" y2="327.808"/><linearGradient id="SVGID_00000075848037316410197070000007226700984848063878_" gradientUnits="userSpaceOnUse" x1="162.314" x2="232.07" xlink:href="#lg2" y1="259.048" y2="328.803"/><linearGradient id="SVGID_00000182502205257724451260000014328334633158894216_" gradientUnits="userSpaceOnUse" x1="270.463" x2="329.778" xlink:href="#lg2" y1="265.363" y2="324.678"/><linearGradient id="SVGID_00000118385404887853874450000008715689623110261936_" gradientUnits="userSpaceOnUse" x1="257.356" x2="257.356" xlink:href="#lg1" y1="154.925" y2="179.162"/><linearGradient id="SVGID_00000125560404633286943080000015389426371136532927_" gradientUnits="userSpaceOnUse" x1="208.322" x2="327.516" y1="53.744" y2="168.483"><stop offset="0" stop-color="#eaebff"/><stop offset="1" stop-color="#adb9eb"/></linearGradient><linearGradient id="lg3"><stop offset="0" stop-color="#bec6ed"/><stop offset="1" stop-color="#2740b0"/></linearGradient><linearGradient id="SVGID_00000031175270285611170050000012356224819582789248_" gradientUnits="userSpaceOnUse" x1="141.579" x2="243.499" xlink:href="#lg3" y1="-18.662" y2="254.845"/><linearGradient id="SVGID_00000004532528218812590950000007941359930403186818_" gradientUnits="userSpaceOnUse" x1="261.794" x2="363.714" xlink:href="#lg3" y1="-73.563" y2="199.944"/><linearGradient id="lg4"><stop offset="0" stop-color="#2740b0" stop-opacity="0"/><stop offset=".3204" stop-color="#263fad" stop-opacity=".32"/><stop offset=".5714" stop-color="#233aa3" stop-opacity=".571"/><stop offset=".7979" stop-color="#1f3393" stop-opacity=".798"/><stop offset="1" stop-color="#192a7d"/></linearGradient><linearGradient id="SVGID_00000067205577064453995390000017045741177554316712_" gradientUnits="userSpaceOnUse" x1="340.406" x2="370.518" xlink:href="#lg4" y1="99.641" y2="99.641"/><linearGradient id="SVGID_00000039101404047047510400000009791907231873775492_" gradientUnits="userSpaceOnUse" x1="256" x2="256" xlink:href="#lg4" y1="162.053" y2="202.701"/><linearGradient id="SVGID_00000183952426431184613650000007227843531999808908_" gradientUnits="userSpaceOnUse" x1="100.989" x2="122.664" xlink:href="#lg1" y1="157.121" y2="178.796"/><linearGradient id="SVGID_00000051368473386717446710000015988642752655646357_" gradientUnits="userSpaceOnUse" x1="110.556" x2="110.556" xlink:href="#lg2" y1="168.453" y2="195.747"/><linearGradient id="SVGID_00000093857526901893359170000016035616752194210492_" gradientUnits="userSpaceOnUse" x1="113.1" x2="131.445" xlink:href="#lg2" y1="169.231" y2="187.576"/><linearGradient id="SVGID_00000075146433093963632870000005662548602183592110_" gradientUnits="userSpaceOnUse" x1="391.878" x2="413.553" xlink:href="#lg1" y1="157.121" y2="178.796"/><linearGradient id="SVGID_00000162323322116098398800000006524500026210322353_" gradientUnits="userSpaceOnUse" x1="401.444" x2="401.444" xlink:href="#lg2" y1="168.453" y2="195.747"/><linearGradient id="SVGID_00000080894472885244163430000000938925745727589802_" gradientUnits="userSpaceOnUse" x1="403.989" x2="422.334" xlink:href="#lg2" y1="169.231" y2="187.576"/><g><path d="m389.413 164.981-9.108 32.267c-2.958 10.479-12.629 17.797-23.517 17.797h-100.789-100.789c-10.888 0-20.559-7.318-23.517-17.797l-9.108-32.267-24.06 6.791 9.108 32.267c5.984 21.199 25.549 36.005 47.577 36.005h100.789 100.789c22.028 0 41.592-14.806 47.577-36.005l9.108-32.267z" fill="url(#SVGID_1_)"/><path d="m389.413 164.981-9.108 32.267c-2.958 10.479-12.629 17.797-23.517 17.797h-100.789-100.789c-10.888 0-20.559-7.318-23.517-17.797l-9.108-32.267-24.06 6.791 9.108 32.267c5.984 21.199 25.549 36.005 47.577 36.005h100.789 100.789c22.028 0 41.592-14.806 47.577-36.005l9.108-32.267z" fill="url(#SVGID_00000057137830704851152700000000467083835129265840_)"/><path d="m255.999 215.044h86.348v25h-86.348z" fill="url(#SVGID_00000158735557582350875920000009647928579953546687_)"/><g><g><path d="m376.272 267.561-65.243 8.202c-6.404.805-12.581-2.674-15.211-8.568l-26.434-59.231c-5.167-11.577-21.6-11.577-26.767 0l-26.434 59.231c-2.63 5.894-8.807 9.373-15.211 8.568l-65.243-8.202c-12.534-1.576-21.056 12.385-13.926 22.813l38.968 56.995c3.41 4.987 3.41 11.556 0 16.543l-38.968 56.995c-7.13 10.428 1.392 24.389 13.926 22.813l65.243-8.202c6.404-.805 12.581 2.674 15.211 8.568l26.434 59.231c5.167 11.577 21.6 11.577 26.767 0l26.434-59.231c2.631-5.894 8.807-9.373 15.211-8.568l65.243 8.202c12.534 1.576 21.056-12.385 13.926-22.813l-38.968-56.995c-3.41-4.987-3.41-11.556 0-16.543l38.968-56.995c7.13-10.429-1.392-24.389-13.926-22.813z" fill="url(#SVGID_00000021117707847031232590000011128899097108272306_)"/><path d="m209.991 273.991c-2.674 1.506-5.818 2.174-9.02 1.772l-65.242-8.202c-6.228-.783-11.46 2.273-14.279 6.822l134.55 81.258z" fill="url(#SVGID_00000060740735701382546830000002304911002736754093_)"/><path d="m302.009 273.991c-2.674-1.506-4.876-3.849-6.191-6.797l-26.434-59.231c-2.583-5.788-7.983-8.683-13.383-8.683v156.359z" fill="url(#SVGID_00000072966758362905003650000004267678170566958504_)"/><path d="m348.672 355.641c0-2.889.852-5.778 2.557-8.272l38.968-56.995c3.587-5.247 3.207-11.384.352-15.991l-134.549 81.258z" fill="url(#SVGID_00000150797201579897040380000014843309785274971583_)"/><path d="m163.328 355.641c0 2.889-.852 5.778-2.557 8.272l-38.968 56.995c-3.587 5.247-3.207 11.384-.352 15.991l134.549-81.258z" fill="url(#SVGID_00000139988345349961177930000009459915247907282588_)"/><path d="m376.271 443.72c6.228.783 11.46-2.273 14.279-6.822l-134.55-81.257 46.009 81.649c2.674-1.506 5.818-2.174 9.02-1.772z" fill="url(#SVGID_00000150822701337872509940000008283375311253074834_)"/><path d="m209.991 437.29c2.674 1.506 4.876 3.849 6.191 6.797l26.434 59.231c2.584 5.788 7.984 8.682 13.384 8.682v-156.359z" fill="url(#SVGID_00000153675683679095312690000013376962919744902284_)"/><path d="m160.77 363.912-38.968 56.995c-7.13 10.428 1.392 24.389 13.927 22.813l65.242-8.202c6.404-.805 12.581 2.674 15.211 8.569l26.434 59.231c5.167 11.577 21.6 11.577 26.767 0l26.434-59.231c2.631-5.894 8.807-9.374 15.211-8.569l65.242 8.202c12.534 1.576 21.056-12.385 13.927-22.813l-38.968-56.995c-1.705-2.494-2.557-5.382-2.557-8.272h-185.344c0 2.89-.853 5.778-2.558 8.272z" fill="url(#SVGID_00000160155978308875588030000015194807800940718266_)"/></g><g><g><g><circle cx="256" cy="355.641" fill="url(#SVGID_00000096029094600209658480000015991717344536927130_)" r="122.056"/><circle cx="256" cy="355.641" fill="url(#SVGID_00000114759643129801186610000009522575587072202421_)" r="106.053"/><path d="m133.944 355.641c0 67.409 54.646 122.056 122.056 122.056s122.056-54.647 122.056-122.056c0-14.599-2.572-28.595-7.273-41.572h-229.567c-4.7 12.976-7.272 26.972-7.272 41.572z" fill="url(#SVGID_00000026841870885385011050000003637963904683710648_)"/><path d="m169.693 441.947c47.666 47.666 124.948 47.666 172.614 0s47.666-124.948 0-172.614c-10.323-10.323-22.039-18.401-34.538-24.253l-162.329 162.329c5.852 12.5 13.93 24.215 24.253 34.538z" fill="url(#SVGID_00000040535083390909432330000008206942724219491000_)"/></g><path d="m212.946 416.864 44.788 44.788c26.56-.432 52.989-10.754 73.256-31.021 13.656-13.656 22.78-30.117 27.43-47.523l-55.859-55.859z" fill="url(#SVGID_00000134936401523547824470000000743757070113404843_)"/><g><g><g><circle cx="256" cy="370.296" fill="url(#SVGID_00000085948978711570899960000000010362514663686810_)" r="63.416"/><path d="m192.584 370.296c0 35.024 28.392 63.416 63.416 63.416s63.416-28.393 63.416-63.416c0-7.585-1.336-14.857-3.779-21.599h-119.275c-2.442 6.742-3.778 14.014-3.778 21.599z" fill="url(#SVGID_00000093158336781436823520000014165394593246833048_)"/><path d="m211.158 415.138c24.765 24.765 64.918 24.766 89.684 0s24.765-64.919 0-89.684c-5.364-5.364-11.451-9.561-17.945-12.601l-84.34 84.34c3.04 6.495 7.237 12.582 12.601 17.945z" fill="url(#SVGID_00000046339134220843252220000002899676655538734778_)"/></g><path d="m319.354 367.539-21.85-21.85-82.343 50.97 37.088 36.938c17.456 1.028 35.256-5.122 48.594-18.459 13.083-13.084 19.252-30.463 18.511-47.599z" fill="url(#SVGID_00000078044843925040158200000017635486336140681608_)"/><path d="m259.362 324.009 23 23h-23z" fill="url(#SVGID_00000155124428816402141920000001050883401492213912_)"/><g><path d="m293.099 343.585-20.125 2.53c-1.975.248-3.881-.825-4.692-2.643l-8.154-18.27c-1.594-3.571-6.663-3.571-8.256 0l-8.154 18.27c-.811 1.818-2.717 2.891-4.692 2.643l-20.125-2.53c-3.866-.486-6.495 3.82-4.296 7.037l12.02 17.581c1.052 1.538 1.052 3.565 0 5.103l-12.02 17.581c-2.199 3.217.429 7.523 4.296 7.037l20.125-2.53c1.975-.248 3.881.825 4.692 2.643l8.154 18.27c1.594 3.571 6.663 3.571 8.256 0l8.154-18.27c.811-1.818 2.717-2.891 4.692-2.643l20.125 2.53c3.866.486 6.495-3.82 4.296-7.037l-12.02-17.581c-1.052-1.538-1.052-3.565 0-5.103l12.02-17.581c2.199-3.217-.43-7.523-4.296-7.037z" fill="url(#SVGID_00000118389079105923177340000015489469570549135524_)"/><path d="m241.808 345.568c-.825.464-1.795.671-2.782.547l-20.125-2.53c-1.921-.241-3.535.701-4.404 2.104l41.503 25.065z" fill="url(#SVGID_00000034792359560361942990000016060128114483996348_)"/><path d="m270.192 345.568c-.825-.465-1.504-1.187-1.91-2.097l-8.154-18.27c-.797-1.785-2.463-2.678-4.128-2.678v48.231z" fill="url(#SVGID_00000155852248607405957470000014555312635022663853_)"/><path d="m284.586 370.754c0-.891.263-1.782.789-2.551l12.02-17.581c1.107-1.618.989-3.512.109-4.932l-41.504 25.064z" fill="url(#SVGID_00000178165854998479828590000003303429490872853148_)"/><path d="m227.414 370.754c0 .891-.263 1.782-.789 2.551l-12.02 17.581c-1.107 1.618-.989 3.512-.109 4.932l41.504-25.064z" fill="url(#SVGID_00000179608299134728395450000002802132868559694997_)"/><path d="m293.099 397.923c1.921.241 3.535-.701 4.404-2.104l-41.503-25.065 14.192 25.186c.825-.464 1.795-.671 2.782-.547z" fill="url(#SVGID_00000056404875765905572140000005789039952850539904_)"/><path d="m241.808 395.939c.825.465 1.504 1.187 1.91 2.097l8.154 18.27c.797 1.785 2.463 2.678 4.128 2.678v-48.231z" fill="url(#SVGID_00000086683886715318684930000013642696401068155783_)"/><path d="m226.625 373.305-12.02 17.581c-2.199 3.217.429 7.523 4.296 7.037l20.125-2.53c1.975-.248 3.881.825 4.692 2.643l8.154 18.27c1.594 3.571 6.663 3.571 8.256 0l8.154-18.27c.811-1.818 2.717-2.891 4.692-2.643l20.125 2.53c3.866.486 6.495-3.82 4.296-7.037l-12.02-17.581c-.526-.769-.789-1.66-.789-2.551h-57.172c0 .891-.263 1.782-.789 2.551z" fill="url(#SVGID_00000171718357514231739860000007068958817393065119_)"/></g></g><path d="m260.169 277.239 1.04 2.107c.677 1.372 1.986 2.323 3.5 2.543l2.325.338c3.813.554 5.335 5.24 2.576 7.929l-1.682 1.64c-1.096 1.068-1.596 2.607-1.337 4.115l.397 2.316c.651 3.797-3.335 6.693-6.745 4.9l-2.079-1.093c-1.354-.712-2.972-.712-4.326 0l-2.079 1.093c-3.41 1.793-7.396-1.103-6.745-4.9l.397-2.316c.259-1.508-.241-3.047-1.337-4.115l-1.682-1.64c-2.759-2.689-1.237-7.375 2.576-7.929l2.325-.338c1.514-.22 2.823-1.171 3.5-2.543l1.04-2.107c1.704-3.455 6.63-3.455 8.336 0z" fill="url(#SVGID_00000042000038421597232770000002546448765145808534_)"/><g><path d="m209.252 288.121 1.04 2.107c.677 1.372 1.986 2.323 3.5 2.543l2.325.338c3.813.554 5.335 5.24 2.576 7.929l-1.682 1.64c-1.096 1.068-1.596 2.607-1.337 4.115l.397 2.316c.651 3.797-3.335 6.693-6.745 4.9l-2.079-1.093c-1.354-.712-2.972-.712-4.326 0l-2.079 1.093c-3.41 1.793-7.396-1.103-6.745-4.9l.397-2.316c.259-1.508-.241-3.047-1.337-4.115l-1.682-1.64c-2.759-2.689-1.237-7.375 2.576-7.929l2.325-.338c1.514-.22 2.823-1.171 3.5-2.543l1.04-2.107c1.704-3.455 6.631-3.455 8.336 0z" fill="url(#SVGID_00000075848037316410197070000007226700984848063878_)"/><path d="m311.085 288.121 1.04 2.107c.677 1.372 1.986 2.323 3.5 2.543l2.325.338c3.813.554 5.335 5.24 2.576 7.929l-1.682 1.64c-1.096 1.068-1.596 2.607-1.337 4.115l.397 2.316c.651 3.797-3.335 6.693-6.745 4.9l-2.079-1.093c-1.354-.712-2.972-.712-4.326 0l-2.079 1.093c-3.41 1.793-7.396-1.103-6.745-4.9l.397-2.316c.259-1.508-.241-3.047-1.337-4.115l-1.682-1.64c-2.759-2.689-1.237-7.375 2.576-7.929l2.325-.338c1.514-.22 2.823-1.171 3.5-2.543l1.04-2.107c1.704-3.455 6.631-3.455 8.336 0z" fill="url(#SVGID_00000182502205257724451260000014328334633158894216_)"/></g></g></g></g></g><path d="m127.257 149.934h260.198v33.505h-260.198z" fill="url(#SVGID_00000118385404887853874450000008715689623110261936_)"/><g><path d="m352.442 199.281h-192.884c-10.081 0-18.254-8.172-18.254-18.254v-162.773c.001-10.082 8.173-18.254 18.254-18.254h192.883c10.081 0 18.254 8.172 18.254 18.254v162.774c0 10.081-8.172 18.253-18.253 18.253z" fill="url(#SVGID_00000125560404633286943080000015389426371136532927_)"/><g><path d="m213.315 188.146v-177.01c0-6.15 4.986-11.136 11.136-11.136h-64.893c-10.081 0-18.254 8.172-18.254 18.254v162.774c0 10.081 8.172 18.254 18.254 18.254h64.893c-6.15-.001-11.136-4.986-11.136-11.136z" fill="url(#SVGID_00000031175270285611170050000012356224819582789248_)"/><path d="m352.442 0h-64.893c6.15 0 11.136 4.986 11.136 11.136v177.01c0 6.15-4.986 11.136-11.136 11.136h64.893c10.081 0 18.254-8.172 18.254-18.254v-162.774c-.001-10.082-8.173-18.254-18.254-18.254z" fill="url(#SVGID_00000004532528218812590950000007941359930403186818_)"/><path d="m352.442 0h-64.893c6.15 0 11.136 4.986 11.136 11.136v177.01c0 6.15-4.986 11.136-11.136 11.136h64.893c10.081 0 18.254-8.172 18.254-18.254v-162.774c-.001-10.082-8.173-18.254-18.254-18.254z" fill="url(#SVGID_00000067205577064453995390000017045741177554316712_)"/></g><path d="m141.305 110.065v70.962c0 10.081 8.172 18.254 18.254 18.254h192.883c10.081 0 18.254-8.172 18.254-18.254v-70.962z" fill="url(#SVGID_00000039101404047047510400000009791907231873775492_)"/></g><g><g><circle cx="110.556" cy="166.687" fill="url(#SVGID_00000183952426431184613650000007227843531999808908_)" r="29.148"/><path d="m81.408 166.687c0 16.098 13.05 29.148 29.148 29.148s29.148-13.05 29.148-29.148c0-3.486-.614-6.829-1.737-9.928h-54.822c-1.123 3.099-1.737 6.441-1.737 9.928z" fill="url(#SVGID_00000051368473386717446710000015988642752655646357_)"/><path d="m89.945 187.297c11.383 11.383 29.838 11.383 41.221 0s11.383-29.838 0-41.221c-2.465-2.465-5.263-4.394-8.248-5.792l-38.765 38.765c1.398 2.985 3.327 5.783 5.792 8.248z" fill="url(#SVGID_00000093857526901893359170000016035616752194210492_)"/></g><g><circle cx="401.444" cy="166.687" fill="url(#SVGID_00000075146433093963632870000005662548602183592110_)" r="29.148"/><path d="m372.297 166.687c0 16.098 13.05 29.148 29.148 29.148s29.148-13.05 29.148-29.148c0-3.486-.614-6.829-1.737-9.928h-54.822c-1.123 3.099-1.737 6.441-1.737 9.928z" fill="url(#SVGID_00000162323322116098398800000006524500026210322353_)"/><path d="m380.834 187.297c11.383 11.383 29.838 11.383 41.221 0s11.383-29.838 0-41.221c-2.465-2.465-5.263-4.394-8.248-5.792l-38.765 38.765c1.397 2.985 3.326 5.783 5.792 8.248z" fill="url(#SVGID_00000080894472885244163430000000938925745727589802_)"/></g></g></g></svg>