<svg id="Layer_1" enable-background="new 0 0 38 38" height="512" viewBox="0 0 38 38" width="512" xmlns="http://www.w3.org/2000/svg"><g id="_x33_1"><g><g><path d="m18.9993267 32.4967384c-.9755287 0-1.9180679-.1379318-2.8106308-.3968048-6.3635111-1.834444-9.2718773-9.2686787-5.8581858-14.9277973 3.9318333-6.528553 13.4025908-6.5339737 17.337635 0 4.0076381 6.6484928-.7206811 15.3246021-8.6688184 15.3246021z" fill="#ffd475"/></g></g><g><g><path d="m23.4721699 31.4562378-.0669594-1.793129 3.8981209-6.8776894 1.8051338-.691658c.1588821 3.8092862-2.0216599 7.5781155-5.6362953 9.3624764z" fill="#ffb961"/></g></g><g><g><path d="m18.232 10.798h1.599v2.756h-1.599z" fill="#ffb961"/></g></g><g><g><path d="m18.233 10.798h.8v2.756h-.8z" fill="#f3a250"/></g></g><g><g><path d="m29.1054649 22.7924232-2.002037 1.8660927h-15.9423123l-2.2739038-2.143961c-.0400629-1.7608356.4404411-3.6799126 1.4432983-5.3424187 3.9318333-6.528553 13.4025908-6.5339737 17.337635 0 1.0076495 1.6716443 1.5124083 3.5947209 1.4373198 5.620287z" fill="#ffde9b"/></g></g><g><g><circle cx="19" cy="22.384" fill="#f3a250" r="8.829"/></g></g><g><g><path d="m27.8120937 22.9173622c-.2748661-4.621769-4.1230106-8.296999-8.812767-8.296999-4.6887293 0-8.5368729 3.67523-8.8117409 8.296999-.3376379-4.9854851 3.6856022-9.3634768 8.8117409-9.3634768 5.1128655.0000001 9.1514397 4.3627062 8.812767 9.3634768z" fill="#dd8536"/></g></g><g opacity=".2"><g><path d="m28.9785233 20.7364082c-7.7856579 12.4706802-7.0245667 11.2516022-7.0775928 11.3365364-1.7955685.5392609-3.8014393.5811806-5.7122345.026989-.049572-.0793076.6874619 1.0998611-7.1545572-11.4464817.2158871-1.2543869.662693-2.4308224 1.2963715-3.4813156h17.337635c.6476849 1.0744801 1.1014699 2.2779045 1.310378 3.5642719z" fill="#111d33"/></g></g><g><g><path d="m30.7496662 16.5824165-11.368515 18.2092247c-.1739159.2778549-.5777245.2778549-.750639 0l-11.3804988-18.2092247c-.0719867-.1159458-.0829678-.2448883-.0489998-.3598232.0519767-.1769161.2129102-.317852.4247952-.317852h22.7490387c.3461455 0 .5589065.3824119.3748187.6776752z" fill="#ffb961"/></g></g><g><g><path d="m30.7376614 16.0956535-3.5342827 2.0659943-16.0012913.0839691-4.0010738-2.0230236c.0519767-.1769161.2129102-.317852.4247952-.317852h22.7490387c.1569308 0 .2858733.0779657.3628139.1909122z" fill="#ffd475"/></g></g><g><g><path d="m10.8534288 17.8043022h16.294735c.2612972 0 .4206524.2873592.2822666.5090027l-8.1435051 13.0429153c-.1302757.2086563-.4340935.2087193-.5644588.0001202l-8.1512308-13.0429153c-.1385136-.2216397.0208301-.5091229.2821931-.5091229z" fill="#ffde9b"/></g></g><g><g><path d="m27.4302711 18.3135777-.0559788.0899582h-15.3545818c-.2596054 0-.4215822.2859077-.2818708.5097523l7.6622953 12.2610912-.1129341.1819077c-.1309414.2089081-.4347992.2089081-.5647411 0l-8.1510506-13.0427094c-.1388721-.2218266.0212212-.5097523.281847-.5097523h16.295145c.2608853 0 .4207917.2878608.2818699.5097523z" fill="#f3a250"/></g></g><g opacity=".2"><g><path d="m21.3003597 24.0104904.3469963 2.0232143c.0298138.1738319-.1526394.3063946-.3087521.2243252l-1.8169918-.9551926c-.0619907-.032589-.1360455-.032589-.1980362 0l-1.8169918.9551926c-.1561127.0820694-.3385658-.0504932-.3087521-.2243252l.3469963-2.0232143c.0118389-.0690289-.0110474-.1394634-.0611992-.1883507l-1.470026-1.4329338c-.1262903-.1231041-.056612-.3375854.1179161-.3629627l2.0315628-.295393c.0692997-.0100765.1292057-.0536041.1602001-.1163998l.9084911-1.8406773c.0780602-.1581516.3035812-.1581516.3816395 0l.908493 1.8406773c.0309944.0627956.0909004.1063232.1602001.1163998l2.0315628.295393c.1745281.0253773.2442074.2398586.1179161.3629627l-1.470026 1.4329338c-.0501535.0488873-.0730379.1193219-.061199.1883507z" fill="#111d33"/></g></g><g><g><path d="m21.0753651 23.6488914.3469982 2.0232143c.0298138.1738319-.1526394.3063946-.308754.2243271l-1.8169899-.9551926c-.0619907-.032589-.1360474-.032589-.1980381 0l-1.8169899.9551926c-.1561127.0820675-.3385677-.0504951-.308754-.2243271l.3469982-2.0232143c.0118389-.0690289-.0110474-.1394634-.0611992-.1883507l-1.470026-1.4329338c-.1262913-.1231041-.056613-.3375854.1179161-.3629627l2.0315609-.295393c.0692997-.0100765.1292076-.0536041.1602001-.1163998l.908493-1.8406754c.0780582-.1581535.3035812-.1581535.3816395 0l.908493 1.8406754c.0309925.0627956.0909004.1063232.1602001.1163998l2.0315609.295393c.1745281.0253773.2442074.2398586.1179161.3629627l-1.470026 1.4329338c-.0501517.0488873-.0730379.1193219-.061199.1883507z" fill="#fff"/></g></g><g><g><path d="m27.4302711 18.3135777-.0559788.0899582h-15.3545818c-.1049547 0-.1939249.0459862-.2528811.1169491l-1.1844387-.576725c.05898-.0829678.1549301-.1399345.2708654-.1399345h16.295145c.2608854-.0000001.4207918.2878607.28187.5097522z" fill="#ffb961"/></g></g><g><g><path d="m24.261797 11.5562763h-10.4589844c-.7783203 0-1.4121094-.6337891-1.4121094-1.4121094s.6337891-1.4111328 1.4121094-1.4111328h10.4589844c.7783203 0 1.4121094.6328125 1.4121094 1.4111328s-.6337891 1.4121094-1.4121094 1.4121094zm-10.4589844-2.0341797c-.34375 0-.6230469.2792969-.6230469.6220703 0 .34375.2792969.6230469.6230469.6230469h10.4589844c.34375 0 .6230469-.2792969.6230469-.6230469 0-.3427734-.2792969-.6220703-.6230469-.6220703z" fill="#31445b"/></g></g><g><g><path d="m13.754 3h10.42v6.53h-10.42z" fill="#b28afd"/></g></g><g><g><path d="m15.076 3h7.82v6.53h-7.82z" fill="#f3f1fc"/></g></g><g><g><path d="m17.556 3h2.952v6.53h-2.952z" fill="#986ff9"/></g></g></g></svg>