<svg id="Layer_1" enable-background="new 0 0 38 38" height="512" viewBox="0 0 38 38" width="512" xmlns="http://www.w3.org/2000/svg"><g id="_x32_6"><g><g><g><g><path d="m34.919796 26.835268c.0014763.010828-.0093498.0123043-.0093498.0123043l-.0108261.0014782-.673584.5545521c-.0186996.0246086-.0992813.0797157-.1440659.0747967-.1023102.0087986-6.29739.5415688-5.9025631.5076141-.1057911.0415421-.1886463-.0058365-.2512589.1773796l-1.4271774 4.9656048.385498.3221283-.692215.579155c-.0899963.0674171-.2242241.052639-.3038921-.0467796-.7963295-.9650307 2.8847427 3.4958725-7.7880859-9.4379883.1030636-.0848331 5.2162266-4.2935505 4.8935337-4.0279369l3.4564381-2.8514194c4.3225136 5.247076 3.2770061 3.9731274 7.564312 9.1709976z" fill="#cc104a"/></g></g><g><g><path d="m28.1841774 27.9900093 5.8952293-.5096703c.1088676-.0058918.2258492-.1439381.8440704-.6434193l-.9104538.0026035-.0037918-.0046024-5.7043438.4514446z" fill="#df3260"/></g></g><g><g><path d="m34.9431076 26.5230827c.0911026.0985413.0651245.2332191-.0236931.311903.0022202.0111675-.0097313.0124035-.0097313.0124035l-.0101395.001442c-.0296211.026228-.0596657.041523-.1039047.0468616l-1.4550247.1260014c-4.5977383.4133663-4.526825.3508644-4.6269283.4395676-.1000156.069603.0170879-.1687794-1.3401623 4.519825l-.3842125 1.3338737c-.0130997.0682106-.0516357.1078415-.1023521.135952-.0318317.0150719-.0517368.028923-.0840111.0330391-.0757065.0104446-.1569939-.0215111-.2094707-.0807343-.0830879-.1009369-7.8626919-9.5519714-7.7792511-9.4506474.1009502-.0830708 7.2829323-5.993 7.1815891-5.909584.1031342-.0845509 1.2734013-1.0439339 1.1702652-.959383 3.6284713 4.3920956 4.1779899 5.0709629 7.7770271 9.4394798z" fill="#f45170"/></g></g></g><g><g><path d="m33.3406143 27.0216942-1.9779682.1711178c-2.4671307.2281342-2.548521.179451-2.6489601.2684498-.0070457.0054741-.0140667.0109291-.0203285.0174103-.0282269.0241451-.0485477.0538769-.0532074.0913277-.0295448.1028442-.7981091 2.7782192-.7490749 2.6075325l-.5175514 1.8035545-7.3684673-9.0070877c.331295-.2725506 5.0996761-4.1953926 4.8095112-3.9566784l1.1812477-.9743347z" fill="#f3f1fc"/></g></g><g><g><path d="m31.3626461 27.192812-2.5237484.2179031c-.0839252.0122185-.1876545.070116-.1987476.1592846-.0295448.1028442-.7981091 2.7782192-.7490749 2.6075325l-6.6096058-8.2515259 3.5330982-2.9086857z" fill="#f45170"/></g></g></g><g><g><g><g><path d="m3.0802038 26.835268c-.001477.010828.0093505.0123043.0093505.0123043l.0108273.0014782.6735816.5545521c.0187011.0246086.0992808.0797157.1440675.0747967.1023078.0087986 6.297389.5415688 5.9025631.5076141l.0540714.0073757c.2450171.0334206.1043253-.1351452 1.6243639 5.1356087l-.385499.3221283.6922169.579155c.0899963.0674171.2242241.052639.3038912-.0467796.0832129-.1008339 7.8717918-9.5390911 7.7880859-9.4379883-.1009045-.0831261-8.4513159-6.9627724-8.3499727-6.8793564-4.3225126 5.247076-3.2770061 3.9731274-7.564311 9.1709976z" fill="#cc104a"/></g></g><g><g><path d="m9.8158226 27.9900093-5.8952284-.5096703c-.1088691-.0058918-.2258484-.1439381-.8440707-.6434193l.9104548.0026035.003792-.0046024 5.7043419.4514446z" fill="#df3260"/></g></g><g><g><path d="m3.0568907 26.5230827c-.0911014.0985413-.0651233.2332191.0236959.311903-.0022213.0111675.0097313.0124035.0097313.0124035l.0101395.001442c.0296209.026228.0596652.041523.1039023.0468616l1.4550264.1260014 4.5017152.3890209c.0881939.0128403.1879177.0729408.1987486.1592846.0290699.10116 1.6799173 5.8461189 1.6508398 5.7449608.0130987.0682106.0516348.1078415.1023502.135952.0318327.0150719.0517378.028923.084013.0330391.0757055.0104446.1569929-.0215111.2094707-.0807343.083087-.1009369 7.8626909-9.5519714 7.7792501-9.4506474-.1009502-.0830708-7.2829323-5.993-7.1815882-5.909584-.1031351-.0845509-1.2734022-1.0439339-1.1702671-.959383-10.5727452 12.8319874 2.9004547-3.5290689-7.7770277 9.4394798z" fill="#f45170"/></g></g></g><g><g><path d="m4.6593862 27.0216942 1.9779668.1711178 2.5237484.2179031c.0862875.0125637.1881533.0741196.1987486.1592846.0290499.1011658 1.2956858 4.512249 1.2666264 4.411087l7.3684673-9.0070877c-.331295-.2725506-5.0996771-4.1953926-4.8095102-3.9566784l-1.1812477-.9743347z" fill="#f3f1fc"/></g></g><g><g><path d="m6.6373529 27.192812 2.5237484.2179031c.0747585.0118828.1403837.0384464.1987486.1592846.0295448.1028442.79811 2.7782192.7490759 2.6075325l6.6096048-8.2515259-3.5330973-2.9086857z" fill="#f45170"/></g></g></g><g><g><path d="m32.1230087 10.4637871-1.7476826 11.4044018c0 4.143631-20.7209053 4.3580399-23.2138405.7492752-.1635652-.233902-.2491317-.4830341-.2491317-.7492752l-1.4319743-11.2313414c-.0570045-.4520731.5054574-.7037134.802506-.3632288 1.4338779 1.6563606 4.1437798 4.2578764 6.4524517 3.4648657 2.6072035-.8937836 5.1421175-6.9373446 6.1177073-9.5141373.1515446-.3986528.7097206-.389231.8576622-.0037837 1.0725288 2.7327209 3.9022617 9.4019442 6.1462593 9.7803774 1.8655186.3137598 4.1247444-2.1641417 5.4464054-3.8889599.2902908-.376636.8910712-.1190171.8196372.3518062z" fill="#dedffb"/></g></g><g><g><path d="m19.3683929 3.9372137v4.109539l-1.3787212 4.2902136-4.6591291 4.2673712-5.609972-2.0595407-2.0386009-4.3491306c.1768436-.1179266.4316864-.1160231.6009159.0779524 1.4338779 1.6563606 4.1437798 4.2578764 6.4524517 3.4648657 2.6072035-.8937836 5.1421175-6.9373446 6.1177073-9.5141373.087469-.2300967.3137588-.3270847.5153483-.2871333z" fill="#e9e7fc"/></g></g><g><g><path d="m32.1230087 10.4637871-1.7476826 11.4044018c0 .3366013-.1369171.6465778-.3917122.9318314l-1.8674679-.9185066 1.6164322-7.3367167 2.167902-4.5488167c.15024.08747.2548428.2548189.2225285.4678068z" fill="#d0cef2"/></g></g><g><g><path d="m18.2749233 22.8323555v2.3276615c-5.0299473-.0399284-9.9705219-.8880711-11.1134377-2.5425529l2.6509385-1.6867924z" fill="#e9e7fc"/></g></g><g><g><path d="m11.3638582 23.1556797c-2.2664232-.5001202-3.0183687-1.1148262-3.1203241-1.3111229-1.3725457-10.8464766-.8718305-6.889596-.9856734-7.789238-.0468731-.3675327.3701501-.6123857.6672225-.3909683 1.5474539 1.153367 3.4106493 1.9623327 5.2429619 1.3335819 2.2308598-.7648077 4.2227573-4.0390339 5.738472-7.4083757.1490116-.331244.6191883-.3317471.7670517.000011 3.2378712 7.2647443 5.2515011 7.603745 5.9637012 7.7235169 1.4020557.2348852 2.753891-.4752026 3.8656788-1.3616104.2994423-.23874.7364521.0128765.678421.3914194l-1.1381531 7.424221v.0774422c-.1019554.1962967-.8539009.8110027-3.1203232 1.3111229-4.077507.8998852-10.4768409.900919-14.5590353 0z" fill="#fff"/></g></g><g><g><path d="m11.4867992 22.5985451c-1.7960157-.396307-2.4864912-.835516-2.6913309-.9963417l-.928-7.2754316c1.6514211 1.15837 3.5774512 1.8650637 5.4857306 1.2108383 1.9952841-.6839752 3.9916821-3.1769657 5.9360809-7.4113731 3.2856083 7.2507324 5.4365177 7.6121273 6.2532768 7.7493677 1.4426765.2417126 2.8269691-.3681307 4.0182381-1.249095l-1.0695114 6.9756937c-.2048397.1608257-.8951302.6000347-2.69133.9963417-3.9960383.882122-10.3122624.8831939-14.3131541 0z" fill="#f3f1fc"/></g></g><g><g opacity=".2"><g><path d="m18.303896 22.7365131-1.7514458-.9051571-1.0962544-5.925867 3.693615-3.456091 3.1676807 3.1474381-.483778 6.2152061-1.7876587.9244709z" fill="#111d33"/></g></g><g><g><path d="m18.35009 22.3011169-1.627613-.841238-1.0603962-5.7319011 3.4838562-3.2598067 2.9750042 2.9563999-.4686814 6.0217848-1.6525154.8547611z" fill="#50b069"/></g></g><g><g><path d="m19.1285954 13.6217117-2.5672398 2.4021378.9037304 4.8850345 1.0869198.5617791h1.2456836l1.0624962-.5495663.4030152-5.1781378z" fill="#f1f6fa"/></g></g><g><g><path d="m21.0108013 15.836585c-.0077915.1003923-.0593319.764514-.0515404.6641226-.0103455.1329613-.3535957 4.5441513-.3319397 4.2658577l-.8890743.4599247h-1.12673c-.1009979-.0522137-1.0289116-.5319252-.9279137-.4797115-.0185127-.1000824-.201458-1.0890579-.1829433-.9889755-.0191135-.1032906-.7139397-3.8580475-.6748714-3.6469231l2.297678-2.1499014c.1016178.1009846 2.006546 1.9940786 1.8873348 1.8756065z" fill="#78e75a"/></g></g><g><g><path d="m21.2632008 15.742959.8577404-.318388-2.9750042-2.9563999-.0173416 1.1535406z" fill="#5ec363"/></g></g><g><g><path d="m21.6522598 21.4463558-.7920742-.525259-1.0624962.5495663.202055.8304538z" fill="#72d561"/></g></g><g><g><path d="m18.35009 22.3011169.2019158-.8304538-1.0869198-.5617791-.742609.5509949z" fill="#72d561"/></g></g><g><g><path d="m16.5613556 16.0238495-.8992748-.2958717 3.4838562-3.2598067-.0173416 1.1535406z" fill="#72d561"/></g></g><g opacity=".27"><g><g><path d="m21.0108013 15.836585-.0122127.1558362-3.4979287 3.7653818-.2933464-1.5844593 2.9544678-3.1804018z" fill="#fff"/></g></g><g><g><path d="m20.9592609 16.5007076-.0808429 1.03685-3.0504628 3.28372-.1443519-.0744991-.1111355-.6006146z" fill="#fff"/></g></g></g></g><g><g opacity=".2"><g><path d="m11.6579494 21.1700687-.751749-.3885078-.4705305-2.5434818 1.5853605-1.4834118 1.359622 1.3509331-.2076463 2.6676712-.767293.3967971z" fill="#111d33"/></g></g><g><g><path d="m11.6777773 20.9831905-.6985989-.3610744-.4551391-2.460228 1.4953289-1.3991623 1.2769212 1.2689362-.2011661 2.58465-.7092867.3668785z" fill="#5564d7"/></g></g><g><g><path d="m12.0119247 17.2578449-1.1019029 1.0310364.3878975 2.0967388.4665241.2411251h.534668l.4560403-.2358837.1729813-2.2225418z" fill="#f1f6fa"/></g></g><g><g><path d="m12.8197985 18.2085056c-.0368032.473135-.176156 2.2645912-.1645956 2.1160297l-.3816051.1974068h-.4836121l-.336318-.1739235-.0619574-.0319767c-.0343895-.185854-.3879852-2.096796-.3681889-1.9898052l.9862022-.9227734c.1000939.0994721.9101687.9045144.8100749.8050423z" fill="#8fabfe"/></g></g><g><g><path d="m12.928133 18.1683197.3681564-.1366577-1.2769212-1.2689362-.0074435.4951191z" fill="#656fea"/></g></g><g><g><path d="m13.0951233 20.616312-.3399716-.2254505-.4560403.2358837.0867252.3564453z" fill="#748bfd"/></g></g><g><g><path d="m11.6777773 20.9831905.0866661-.3564453-.4665241-.2411251-.3187409.236496z" fill="#748bfd"/></g></g><g><g><path d="m10.9100218 18.2888813-.3859825-.1269932 1.4953289-1.3991623-.0074435.4951191z" fill="#748bfd"/></g></g><g opacity=".27"><g><g><path d="m12.8197985 18.2085056-.0052414.0668869-1.5013695 1.6161652-.1259089-.6800766 1.2681065-1.3650818z" fill="#fff"/></g></g><g><g><path d="m12.797677 18.493557-.0346994.445034-1.30931 1.4094276-.0619573-.0319767-.0477009-.2577934z" fill="#fff"/></g></g></g></g><g><g opacity=".2"><g><path d="m25.9205894 21.1700687-.751749-.3885078-.4705315-2.5434818 1.5853615-1.4834118 1.3596211 1.3509331-.2076454 2.6676712-.7672921.3967971z" fill="#111d33"/></g></g><g><g><path d="m25.9404182 20.9831905-.6985988-.3610744-.4551411-2.460228 1.4953289-1.3991623 1.2769222 1.2689362-.2011661 2.58465-.7092877.3668785z" fill="#5564d7"/></g></g><g><g><path d="m26.2745647 17.2578449-1.101902 1.0310364.3878956 2.0967388.4665241.2411251h.5346699l.4560394-.2358837.1729813-2.2225418z" fill="#f1f6fa"/></g></g><g><g><path d="m27.0824394 18.2085056c-.0078144.1003895-.0646343.8304749-.0568218.7300854l-.1077747 1.3859444-.3816051.1974068h-.4836121l-.3363171-.1739235-.0619583-.0319767c-.0412025-.2226677-.3868732-2.0907764-.3681889-1.9898052l.9862022-.9227734c.1000939.099472.9101697.9045143.8100758.8050422z" fill="#8fabfe"/></g></g><g><g><path d="m27.190773 18.1683197.3681564-.1366577-1.2769222-1.2689362-.0074425.4951191z" fill="#656fea"/></g></g><g><g><path d="m27.3577633 20.616312-.3399716-.2254505-.4560394.2358837.0867233.3564453z" fill="#748bfd"/></g></g><g><g><path d="m25.9404182 20.9831905.0866642-.3564453-.4665241-.2411251-.3187389.236496z" fill="#748bfd"/></g></g><g><g><path d="m25.1726627 18.2888813-.3859844-.1269932 1.4953289-1.3991623-.0074425.4951191z" fill="#748bfd"/></g></g><g opacity=".27"><g><g><path d="m27.0824394 18.2085056-.0052433.0668869-1.5013675 1.6161652-.1259099-.6800766 1.2681065-1.3650818z" fill="#fff"/></g></g><g><g><path d="m27.0603161 18.493557-.0346985.445034-1.309309 1.4094276-.0619583-.0319767-.0477009-.2577934z" fill="#fff"/></g></g></g></g></g></svg>