<svg version="1.2" xmlns="http://www.w3.org/2000/svg" viewBox="3.552713678800501e-15 0 67 98" width="67" height="98">
	<style>
		.s0 { fill: #fee7d5 } 
		.s1 { fill: #10a4df } 
		.s2 { fill: #bb7750 } 
		.s3 { fill: #df2210 } 
		.s4 { fill: #762f08 } 
		.s5 { fill: #000000 } 
	</style>
	<g id="g3005">
		<path id="path3017" class="s0" d="m16.58 370.58v-2h-2-2v-6-6h-2-2v-4-4h2 2v-4-4h-2-2v-8-8h2 2v-4-4h2 2v-2-2h4 4v-2-2h8 8v2 2h4 4v2 2h2 2v4 4h2 2v2 2h-2-2v6 6h-2-2v4 4h2 2v6 6h2 2v2 2h-2-2v2 2h-2-2v2 2h-4-4v-2-2h-2-2v-2-2h-2-2v2 2h-4-4v2 2h-4-4zm72 0v-2h-2-2v-4-4h-2-2v-6-6h2 2v-2-2h-2-2v-2-2h-2-2v-2-2h-2-2v-8-8h2 2v-4-4h2 2v-2-2h4 4v-2-2h8 8v2 2h4 4v2 2h2 2v4 4h2 2v2 2h-2-2v6 6h-2-2v2 2h-2-2v2 2h-2-2v2 2h2 2v4 4h-2-2v2 2h2 2v4 4h-2-2v2 2h-8-8zm56 0v-2h-2-2v-4-4h2 2v-2-2h-2-2v-4-4h2 2v-2-2h-2-2v-2-2h-2-2v-8-8h2 2v-4-4h2 2v-2-2h4 4v-2-2h8 8v2 2h4 4v2 2h2 2v4 4h2 2v2 2h-2-2v6 6h-2-2v4 4h2 2v6 6h2 2v2 2h-2-2v2 2h-2-2v2 2h-4-4v-2-2h-2-2v-2-2h-2-2v2 2h-4-4v2 2h-4-4zm28-20v-2h-2-2v2 2h2 2zm44 20v-2h-2-2v-4-4h-2-2v-6-6h2 2v-2-2h-2-2v-2-2h-2-2v-2-2h-2-2v-8-8h2 2v-4-4h2 2v-2-2h4 4v-2-2h8 8v2 2h4 4v2 2h2 2v4 4h2 2v2 2h-2-2v6 6h-2-2v2 2h-2-2v2 2h-2-2v2 2h2 2v4 4h-2-2v2 2h2 2v4 4h-2-2v2 2h-8-8zm-192-96v-2h-2-2v-4-4h2 2v-2-2h-2-2v-4-4h2 2v-2-2h-2-2v-2-2h-2-2v-2-2h-2-2v-6-6h-2-2v-2-2h2 2v-4-4h2 2v-2-2h4 4v-2-2h8 8v2 2h4 4v2 2h2 2v4 4h2 2v8 8h-2-2v2 2h-2-2v2 2h-2-2v2 2h2 2v6 6h-2-2v4 4h-2-2v2 2h-8-8zm56 0v-2h-2-2v-2-2h-2-2v-2-2h2 2v-6-6h2 2v-4-4h-2-2v-6-6h-2-2v-2-2h2 2v-4-4h2 2v-2-2h4 4v-2-2h8 8v2 2h4 4v2 2h2 2v4 4h2 2v8 8h-2-2v2 2h-2-2v2 2h2 2v4 4h-2-2v2 2h2 2v4 4h-2-2v2 2h-4-4v-2-2h-4-4v-2-2h-2-2v2 2h-2-2v2 2h-4-4zm8-20v-2h-2-2v2 2h2 2zm64 20v-2h-2-2v-4-4h2 2v-2-2h-2-2v-4-4h2 2v-2-2h-2-2v-2-2h-2-2v-2-2h-2-2v-6-6h-2-2v-2-2h2 2v-4-4h2 2v-2-2h4 4v-2-2h8 8v2 2h4 4v2 2h2 2v4 4h2 2v8 8h-2-2v2 2h-2-2v2 2h-2-2v2 2h2 2v6 6h-2-2v4 4h-2-2v2 2h-8-8zm56 0v-2h-2-2v-2-2h-2-2v-2-2h2 2v-6-6h2 2v-4-4h-2-2v-6-6h-2-2v-2-2h2 2v-4-4h2 2v-2-2h4 4v-2-2h8 8v2 2h4 4v2 2h2 2v4 4h2 2v8 8h-2-2v4 4h2 2v4 4h-2-2v6 6h-2-2v2 2h-4-4v-2-2h-4-4v-2-2h-2-2v2 2h-2-2v2 2h-4-4zm-192-92v-2h-2-2v-6-6h-2-2v-2-2h-2-2v-4-4h2 2v-2-2h2 2v-2-2h2 2v-2-2h-2-2v-2-2h-2-2v-6-6h2 2v-4-4h2 2v-2-2h4 4v-2-2h8 8v2 2h4 4v2 2h2 2v4 4h2 2v6 6h-2-2v2 2h-2-2v2 2h2 2v2 2h2 2v2 2h2 2v4 4h-2-2v2 2h-2-2v6 6h-2-2v2 2h-6-6v-2-2h-4-4v2 2h-6-6zm84 0v-2h-2-2v-2-2h-6-6v-2-2h-4-4v-2-2h-2-2v-4-4h2 2v-4-4h2 2v-2-2h-2-2v-2-2h-2-2v-6-6h2 2v-4-4h2 2v-2-2h4 4v-2-2h8 8v2 2h4 4v2 2h2 2v4 4h2 2v6 6h2 2v4 4h-2-2v2 2h-2-2v12 12h-2-2v2 2h-6-6zm44 0v-2h-2-2v-6-6h-2-2v-2-2h-2-2v-4-4h2 2v-2-2h2 2v-2-2h2 2v-2-2h-2-2v-2-2h-2-2v-6-6h2 2v-4-4h2 2v-2-2h4 4v-2-2h8 8v2 2h4 4v2 2h2 2v4 4h2 2v6 6h-2-2v2 2h-2-2v2 2h2 2v2 2h2 2v2 2h2 2v4 4h-2-2v2 2h-2-2v6 6h-2-2v2 2h-6-6v-2-2h-4-4v2 2h-6-6zm64 0v-2h-2-2v-12-12h-2-2v-2-2h-2-2v-4-4h2 2v-6-6h2 2v-4-4h2 2v-2-2h4 4v-2-2h8 8v2 2h4 4v2 2h2 2v4 4h2 2v6 6h-2-2v2 2h-2-2v2 2h2 2v4 4h2 2v4 4h-2-2v2 2h-4-4v2 2h-6-6v2 2h-2-2v2 2h-6-6zm-192-96v-2h-2-2v-6-6h-2-2v-2-2h-2-2v-4-4h2 2v-2-2h2 2v-2-2h2 2v-2-2h-2-2v-2-2h-2-2v-6-6h2 2v-4-4h2 2v-2-2h4 4v-2-2h8 8v2 2h4 4v2 2h2 2v4 4h2 2v6 6h-2-2v2 2h-2-2v2 2h2 2v2 2h2 2v2 2h2 2v4 4h-2-2v2 2h-2-2v6 6h-2-2v2 2h-6-6v-2-2h-4-4v2 2h-6-6zm84 0v-2h-2-2v-2-2h-8-8v-2-2h-2-2v-6-6h-2-2v-4-4h2 2v-4-4h-2-2v-6-6h2 2v-4-4h2 2v-2-2h4 4v-2-2h8 8v2 2h4 4v2 2h2 2v4 4h2 2v8 8h2 2v4 4h-2-2v2 2h-2-2v10 10h-2-2v2 2h-6-6zm44 0v-2h-2-2v-6-6h-2-2v-2-2h-2-2v-4-4h2 2v-2-2h2 2v-2-2h2 2v-2-2h-2-2v-2-2h-2-2v-6-6h2 2v-4-4h2 2v-2-2h4 4v-2-2h8 8v2 2h4 4v2 2h2 2v4 4h2 2v6 6h-2-2v2 2h-2-2v2 2h2 2v2 2h2 2v2 2h2 2v4 4h-2-2v2 2h-2-2v6 6h-2-2v2 2h-6-6v-2-2h-4-4v2 2h-6-6zm64 0v-2h-2-2v-10-10h-2-2v-2-2h-2-2v-4-4h2 2v-8-8h2 2v-4-4h2 2v-2-2h4 4v-2-2h8 8v2 2h4 4v2 2h2 2v4 4h2 2v6 6h-2-2v4 4h2 2v4 4h-2-2v6 6h-2-2v2 2h-8-8v2 2h-2-2v2 2h-6-6z"/>
		<path id="path3015" class="s1" d="m16.58 370.58v-2h-2-2v-6-6h-2-2v-4-4h2 2v-4-4h-2-2v-8-8h2 2v-4-4h2 2v-2-2h4 4v-2-2h8 8v2 2h4 4v2 2h2 2v4 4h2 2v2 2h-2-2v6 6h-2-2v4 4h2 2v6 6h2 2v2 2h-2-2v2 2h-2-2v2 2h-4-4v-2-2h-2-2v-2-2h-2-2v2 2h-4-4v2 2h-4-4zm0-18v-4h-2-2v4 4h2 2zm32 0v-4h-4-4v-2-2h2 2v-2-2h2 2v-6-6h-2-2v-2-2h-4-4v2 2h-2-2v2 2h-2-2v-2-2h-2-2v4 4h-2-2v2 2h-2-2v2 2h2 2v2 2h10 10v4 4h4 4zm-8-16v-4h2 2v4 4h-2-2zm48 34v-2h-2-2v-4-4h-2-2v-6-6h2 2v-2-2h-2-2v-2-2h-2-2v-2-2h-2-2v-8-8h2 2v-4-4h2 2v-2-2h4 4v-2-2h8 8v2 2h4 4v2 2h2 2v4 4h2 2v2 2h-2-2v6 6h-2-2v2 2h-2-2v2 2h-2-2v2 2h2 2v4 4h-2-2v2 2h2 2v4 4h-2-2v2 2h-8-8zm12-14v-4h-4-4v4 4h4 4zm4-14v-2h2 2v-2-2h2 2v-6-6h-2-2v-2-2h-4-4v2 2h-2-2v2 2h-2-2v-2-2h-2-2v4 4h-2-2v2 2h-2-2v2 2h2 2v2 2h10 10zm0-10v-4h2 2v4 4h-2-2zm40 38v-2h-2-2v-4-4h2 2v-2-2h-2-2v-4-4h2 2v-2-2h-2-2v-2-2h-2-2v-8-8h2 2v-4-4h2 2v-2-2h4 4v-2-2h8 8v2 2h4 4v2 2h2 2v4 4h2 2v2 2h-2-2v6 6h-2-2v4 4h2 2v6 6h2 2v2 2h-2-2v2 2h-2-2v2 2h-4-4v-2-2h-2-2v-2-2h-2-2v2 2h-4-4v2 2h-4-4zm8-18v-4h8 8v2 2h2 2v2 2h2 2v-4-4h-4-4v-2-2h2 2v-2-2h2 2v-6-6h-2-2v-2-2h-4-4v2 2h-2-2v2 2h-2-2v-2-2h-2-2v4 4h-2-2v2 2h-2-2v2 2h4 4v2 2h-4-4v4 4h4 4zm16-16v-4h2 2v4 4h-2-2zm48 34v-2h-2-2v-4-4h-2-2v-6-6h2 2v-2-2h-2-2v-2-2h-2-2v-2-2h-2-2v-8-8h2 2v-4-4h2 2v-2-2h4 4v-2-2h8 8v2 2h4 4v2 2h2 2v4 4h2 2v2 2h-2-2v6 6h-2-2v2 2h-2-2v2 2h-2-2v2 2h2 2v4 4h-2-2v2 2h2 2v4 4h-2-2v2 2h-8-8zm12-14v-4h-4-4v4 4h4 4zm4-14v-2h2 2v-2-2h2 2v-6-6h-2-2v-2-2h-4-4v2 2h-2-2v2 2h-2-2v-2-2h-2-2v4 4h-2-2v2 2h-2-2v2 2h2 2v2 2h10 10zm0-10v-4h2 2v4 4h-2-2zm-208-58v-2h-2-2v-4-4h2 2v-2-2h-2-2v-4-4h2 2v-2-2h-2-2v-2-2h-2-2v-2-2h-2-2v-6-6h-2-2v-2-2h2 2v-4-4h2 2v-2-2h4 4v-2-2h8 8v2 2h4 4v2 2h2 2v4 4h2 2v8 8h-2-2v2 2h-2-2v2 2h-2-2v2 2h2 2v6 6h-2-2v4 4h-2-2v2 2h-8-8zm12-14v-4h-4-4v4 4h4 4zm8-14v-2h2 2v-2-2h-2-2v-2-2h-2-2v-2-2h-2-2v2 2h-4-4v-2-2h-2-2v-2-2h-2-2v-2-2h-2-2v8 8h2 2v2 2h2 2v2 2h10 10zm-24-10v-4h2 2v4 4h-2-2zm60 38v-2h-2-2v-2-2h-2-2v-2-2h2 2v-6-6h2 2v-4-4h-2-2v-6-6h-2-2v-2-2h2 2v-4-4h2 2v-2-2h4 4v-2-2h8 8v2 2h4 4v2 2h2 2v4 4h2 2v8 8h-2-2v2 2h-2-2v2 2h2 2v4 4h-2-2v2 2h2 2v4 4h-2-2v2 2h-4-4v-2-2h-4-4v-2-2h-2-2v2 2h-2-2v2 2h-4-4zm4-16v-2h2 2v-2-2h8 8v4 4h4 4v-4-4h-4-4v-2-2h4 4v-2-2h-2-2v-2-2h-2-2v-2-2h-2-2v2 2h-4-4v-2-2h-2-2v-2-2h-2-2v-2-2h-2-2v8 8h2 2v2 2h2 2v2 2h-4-4v4 4h2 2zm0-18v-4h2 2v4 4h-2-2zm68 34v-2h-2-2v-4-4h2 2v-2-2h-2-2v-4-4h2 2v-2-2h-2-2v-2-2h-2-2v-2-2h-2-2v-6-6h-2-2v-2-2h2 2v-4-4h2 2v-2-2h4 4v-2-2h8 8v2 2h4 4v2 2h2 2v4 4h2 2v8 8h-2-2v2 2h-2-2v2 2h-2-2v2 2h2 2v6 6h-2-2v4 4h-2-2v2 2h-8-8zm12-14v-4h-4-4v4 4h4 4zm8-14v-2h2 2v-2-2h-2-2v-2-2h-2-2v-2-2h-2-2v2 2h-4-4v-2-2h-2-2v-2-2h-2-2v-2-2h-2-2v8 8h2 2v2 2h2 2v2 2h10 10zm-24-10v-4h2 2v4 4h-2-2zm60 38v-2h-2-2v-2-2h-2-2v-2-2h2 2v-6-6h2 2v-4-4h-2-2v-6-6h-2-2v-2-2h2 2v-4-4h2 2v-2-2h4 4v-2-2h8 8v2 2h4 4v2 2h2 2v4 4h2 2v8 8h-2-2v4 4h2 2v4 4h-2-2v6 6h-2-2v2 2h-4-4v-2-2h-4-4v-2-2h-2-2v2 2h-2-2v2 2h-4-4zm8-18v-4h10 10v-2-2h2 2v-2-2h-2-2v-2-2h-2-2v-2-2h-2-2v2 2h-4-4v-2-2h-2-2v-2-2h-2-2v-2-2h-2-2v8 8h2 2v2 2h2 2v2 2h-4-4v4 4h4 4zm-4-16v-4h2 2v4 4h-2-2zm32 16v-4h-2-2v4 4h2 2zm-228-74v-2h-2-2v-6-6h-2-2v-2-2h-2-2v-4-4h2 2v-2-2h2 2v-2-2h2 2v-2-2h-2-2v-2-2h-2-2v-6-6h2 2v-4-4h2 2v-2-2h4 4v-2-2h8 8v2 2h4 4v2 2h2 2v4 4h2 2v6 6h-2-2v2 2h-2-2v2 2h2 2v2 2h2 2v2 2h2 2v4 4h-2-2v2 2h-2-2v6 6h-2-2v2 2h-6-6v-2-2h-4-4v2 2h-6-6zm-4-22v-4h-2-2v4 4h2 2zm44 0v-4h-2-2v4 4h2 2zm-16-10v-2h2 2v-2-2h2 2v-2-2h-2-2v2 2h-4-4v2 2h-4-4v-2-2h-4-4v-2-2h-2-2v2 2h2 2v2 2h2 2v2 2h8 8zm60 32v-2h-2-2v-2-2h-6-6v-2-2h-4-4v-2-2h-2-2v-4-4h2 2v-4-4h2 2v-2-2h-2-2v-2-2h-2-2v-6-6h2 2v-4-4h2 2v-2-2h4 4v-2-2h8 8v2 2h4 4v2 2h2 2v4 4h2 2v6 6h2 2v4 4h-2-2v2 2h-2-2v12 12h-2-2v2 2h-6-6zm-16-18v-4h-4-4v4 4h4 4zm20-10v-2h2 2v-2-2h2 2v2 2h4 4v-4-4h-2-2v2 2h-2-2v-2-2h-2-2v2 2h-4-4v2 2h-4-4v-2-2h-4-4v-2-2h-2-2v2 2h2 2v2 2h2 2v2 2h8 8zm40 28v-2h-2-2v-6-6h-2-2v-2-2h-2-2v-4-4h2 2v-2-2h2 2v-2-2h2 2v-2-2h-2-2v-2-2h-2-2v-6-6h2 2v-4-4h2 2v-2-2h4 4v-2-2h8 8v2 2h4 4v2 2h2 2v4 4h2 2v6 6h-2-2v2 2h-2-2v2 2h2 2v2 2h2 2v2 2h2 2v4 4h-2-2v2 2h-2-2v6 6h-2-2v2 2h-6-6v-2-2h-4-4v2 2h-6-6zm-4-22v-4h-2-2v4 4h2 2zm44 0v-4h-2-2v4 4h2 2zm-16-10v-2h2 2v-2-2h2 2v-2-2h-2-2v2 2h-4-4v2 2h-4-4v-2-2h-4-4v-2-2h-2-2v2 2h2 2v2 2h2 2v2 2h8 8zm40 32v-2h-2-2v-12-12h-2-2v-2-2h-2-2v-4-4h2 2v-6-6h2 2v-4-4h2 2v-2-2h4 4v-2-2h8 8v2 2h4 4v2 2h2 2v4 4h2 2v6 6h-2-2v2 2h-2-2v2 2h2 2v4 4h2 2v4 4h-2-2v2 2h-4-4v2 2h-6-6v2 2h-2-2v2 2h-6-6zm36-18v-4h-4-4v4 4h4 4zm-12-10v-2h2 2v-2-2h2 2v-2-2h-2-2v2 2h-4-4v2 2h-4-4v-2-2h-4-4v-2-2h-2-2v2 2h-2-2v-2-2h-2-2v4 4h4 4v-2-2h2 2v2 2h2 2v2 2h8 8zm-216-68v-2h-2-2v-6-6h-2-2v-2-2h-2-2v-4-4h2 2v-2-2h2 2v-2-2h2 2v-2-2h-2-2v-2-2h-2-2v-6-6h2 2v-4-4h2 2v-2-2h4 4v-2-2h8 8v2 2h4 4v2 2h2 2v4 4h2 2v6 6h-2-2v2 2h-2-2v2 2h2 2v2 2h2 2v2 2h2 2v4 4h-2-2v2 2h-2-2v6 6h-2-2v2 2h-6-6v-2-2h-4-4v2 2h-6-6zm0-24v-6h-2-2v2 2h-2-2v4 4h4 4zm40 2v-4h-2-2v-2-2h-2-2v6 6h4 4zm-16-10v-2h2 2v-2-2h2 2v-2-2h2 2v-4-4h-2-2v2 2h-10-10v-2-2h-4-4v-2-2h-2-2v2 2h-2-2v4 4h2 2v2 2h2 2v2 2h2 2v2 2h8 8zm-16-6v-4h2 2v4 4h-2-2zm12 0v-4h2 2v4 4h-2-2zm64 38v-2h-2-2v-2-2h-8-8v-2-2h-2-2v-6-6h-2-2v-4-4h2 2v-4-4h-2-2v-6-6h2 2v-4-4h2 2v-2-2h4 4v-2-2h8 8v2 2h4 4v2 2h2 2v4 4h2 2v8 8h2 2v4 4h-2-2v2 2h-2-2v10 10h-2-2v2 2h-6-6zm-12-22v-4h8 8v-2-2h2 2v-2-2h2 2v2 2h2 2v2 2h2 2v-4-4h-4-4v-2-2h2 2v-4-4h-2-2v2 2h-10-10v-2-2h-4-4v-2-2h-2-2v2 2h-2-2v4 4h2 2v2 2h2 2v2 2h2 2v2 2h-4-4v-2-2h-2-2v2 2h2 2v4 4h4 4zm0-12v-4h2 2v4 4h-2-2zm12 0v-4h2 2v4 4h-2-2zm44 34v-2h-2-2v-6-6h-2-2v-2-2h-2-2v-4-4h2 2v-2-2h2 2v-2-2h2 2v-2-2h-2-2v-2-2h-2-2v-6-6h2 2v-4-4h2 2v-2-2h4 4v-2-2h8 8v2 2h4 4v2 2h2 2v4 4h2 2v6 6h-2-2v2 2h-2-2v2 2h2 2v2 2h2 2v2 2h2 2v4 4h-2-2v2 2h-2-2v6 6h-2-2v2 2h-6-6v-2-2h-4-4v2 2h-6-6zm0-24v-6h-2-2v2 2h-2-2v4 4h4 4zm40 2v-4h-2-2v-2-2h-2-2v6 6h4 4zm-16-10v-2h2 2v-2-2h2 2v-2-2h2 2v-4-4h-2-2v2 2h-10-10v-2-2h-4-4v-2-2h-2-2v2 2h-2-2v4 4h2 2v2 2h2 2v2 2h2 2v2 2h8 8zm-16-6v-4h2 2v4 4h-2-2zm12 0v-4h2 2v4 4h-2-2zm44 38v-2h-2-2v-10-10h-2-2v-2-2h-2-2v-4-4h2 2v-8-8h2 2v-4-4h2 2v-2-2h4 4v-2-2h8 8v2 2h4 4v2 2h2 2v4 4h2 2v6 6h-2-2v4 4h2 2v4 4h-2-2v6 6h-2-2v2 2h-8-8v2 2h-2-2v2 2h-6-6zm32-22v-4h2 2v-2-2h-2-2v2 2h-4-4v-2-2h2 2v-2-2h2 2v-2-2h2 2v-4-4h-2-2v2 2h-10-10v-2-2h-4-4v-2-2h-2-2v2 2h-2-2v4 4h2 2v2 2h-4-4v4 4h2 2v-2-2h2 2v-2-2h2 2v2 2h2 2v2 2h8 8v4 4h4 4zm-24-12v-4h2 2v4 4h-2-2zm12 0v-4h2 2v4 4h-2-2z"/>
		<path id="path3013" class="s2" d="m16.58 370.58v-2h-2-2v-6-6h-2-2v-4-4h2 2v-4-4h-2-2v-8-8h2 2v-4-4h2 2v-2-2h4 4v-2-2h8 8v2 2h4 4v2 2h2 2v4 4h2 2v2 2h-2-2v6 6h-2-2v4 4h2 2v6 6h2 2v2 2h-2-2v2 2h-2-2v2 2h-4-4v-2-2h-2-2v-2-2h-2-2v2 2h-4-4v2 2h-4-4zm16-8v-2h-4-4v2 2h4 4zm8 0v-2h-2-2v2 2h2 2zm-24-10v-4h-2-2v4 4h2 2zm32 0v-4h-4-4v-2-2h2 2v-2-2h2 2v-6-6h-2-2v-2-2h-4-4v2 2h-2-2v2 2h-2-2v-2-2h-2-2v4 4h-2-2v2 2h-2-2v2 2h2 2v2 2h10 10v4 4h4 4zm-8-16v-4h2 2v4 4h-2-2zm48 34v-2h-2-2v-4-4h-2-2v-6-6h2 2v-2-2h-2-2v-2-2h-2-2v-2-2h-2-2v-8-8h2 2v-4-4h2 2v-2-2h4 4v-2-2h8 8v2 2h4 4v2 2h2 2v4 4h2 2v2 2h-2-2v6 6h-2-2v2 2h-2-2v2 2h-2-2v2 2h2 2v4 4h-2-2v2 2h2 2v4 4h-2-2v2 2h-8-8zm4-8v-2h4 4v2 2h2 2v-2-2h-2-2v-4-4h-4-4v4 4h-2-2v2 2h2 2zm12-20v-2h2 2v-2-2h2 2v-6-6h-2-2v-2-2h-4-4v2 2h-2-2v2 2h-2-2v-2-2h-2-2v4 4h-2-2v2 2h-2-2v2 2h2 2v2 2h10 10zm0-10v-4h2 2v4 4h-2-2zm40 38v-2h-2-2v-4-4h2 2v-2-2h-2-2v-4-4h2 2v-2-2h-2-2v-2-2h-2-2v-8-8h2 2v-4-4h2 2v-2-2h4 4v-2-2h8 8v2 2h4 4v2 2h2 2v4 4h2 2v2 2h-2-2v6 6h-2-2v4 4h2 2v6 6h2 2v2 2h-2-2v2 2h-2-2v2 2h-4-4v-2-2h-2-2v-2-2h-2-2v2 2h-4-4v2 2h-4-4zm16-8v-2h-4-4v2 2h4 4zm8 0v-2h-2-2v2 2h2 2zm-16-10v-4h8 8v2 2h2 2v2 2h2 2v-4-4h-4-4v-2-2h2 2v-2-2h2 2v-6-6h-2-2v-2-2h-4-4v2 2h-2-2v2 2h-2-2v-2-2h-2-2v4 4h-2-2v2 2h-2-2v2 2h4 4v2 2h-4-4v4 4h4 4zm16-16v-4h2 2v4 4h-2-2zm48 34v-2h-2-2v-4-4h-2-2v-6-6h2 2v-2-2h-2-2v-2-2h-2-2v-2-2h-2-2v-8-8h2 2v-4-4h2 2v-2-2h4 4v-2-2h8 8v2 2h4 4v2 2h2 2v4 4h2 2v2 2h-2-2v6 6h-2-2v2 2h-2-2v2 2h-2-2v2 2h2 2v4 4h-2-2v2 2h2 2v4 4h-2-2v2 2h-8-8zm4-8v-2h4 4v2 2h2 2v-2-2h-2-2v-4-4h-4-4v4 4h-2-2v2 2h2 2zm12-20v-2h2 2v-2-2h2 2v-6-6h-2-2v-2-2h-4-4v2 2h-2-2v2 2h-2-2v-2-2h-2-2v4 4h-2-2v2 2h-2-2v2 2h2 2v2 2h10 10zm0-10v-4h2 2v4 4h-2-2zm-208-58v-2h-2-2v-4-4h2 2v-2-2h-2-2v-4-4h2 2v-2-2h-2-2v-2-2h-2-2v-2-2h-2-2v-6-6h-2-2v-2-2h2 2v-4-4h2 2v-2-2h4 4v-2-2h8 8v2 2h4 4v2 2h2 2v4 4h2 2v8 8h-2-2v2 2h-2-2v2 2h-2-2v2 2h2 2v6 6h-2-2v4 4h-2-2v2 2h-8-8zm4-8v-2h4 4v2 2h2 2v-2-2h-2-2v-4-4h-4-4v4 4h-2-2v2 2h2 2zm16-20v-2h2 2v-2-2h-2-2v-2-2h-2-2v-2-2h-2-2v2 2h-4-4v-2-2h-2-2v-2-2h-2-2v-2-2h-2-2v8 8h2 2v2 2h2 2v2 2h10 10zm-24-10v-4h2 2v4 4h-2-2zm60 38v-2h-2-2v-2-2h-2-2v-2-2h2 2v-6-6h2 2v-4-4h-2-2v-6-6h-2-2v-2-2h2 2v-4-4h2 2v-2-2h4 4v-2-2h8 8v2 2h4 4v2 2h2 2v4 4h2 2v8 8h-2-2v2 2h-2-2v2 2h2 2v4 4h-2-2v2 2h2 2v4 4h-2-2v2 2h-4-4v-2-2h-4-4v-2-2h-2-2v2 2h-2-2v2 2h-4-4zm12-8v-2h-2-2v2 2h2 2zm12 0v-2h-4-4v2 2h4 4zm-20-8v-2h2 2v-2-2h8 8v4 4h4 4v-4-4h-4-4v-2-2h4 4v-2-2h-2-2v-2-2h-2-2v-2-2h-2-2v2 2h-4-4v-2-2h-2-2v-2-2h-2-2v-2-2h-2-2v8 8h2 2v2 2h2 2v2 2h-4-4v4 4h2 2zm0-18v-4h2 2v4 4h-2-2zm68 34v-2h-2-2v-4-4h2 2v-2-2h-2-2v-4-4h2 2v-2-2h-2-2v-2-2h-2-2v-2-2h-2-2v-6-6h-2-2v-2-2h2 2v-4-4h2 2v-2-2h4 4v-2-2h8 8v2 2h4 4v2 2h2 2v4 4h2 2v8 8h-2-2v2 2h-2-2v2 2h-2-2v2 2h2 2v6 6h-2-2v4 4h-2-2v2 2h-8-8zm4-8v-2h4 4v2 2h2 2v-2-2h-2-2v-4-4h-4-4v4 4h-2-2v2 2h2 2zm16-20v-2h2 2v-2-2h-2-2v-2-2h-2-2v-2-2h-2-2v2 2h-4-4v-2-2h-2-2v-2-2h-2-2v-2-2h-2-2v8 8h2 2v2 2h2 2v2 2h10 10zm-24-10v-4h2 2v4 4h-2-2zm60 38v-2h-2-2v-2-2h-2-2v-2-2h2 2v-6-6h2 2v-4-4h-2-2v-6-6h-2-2v-2-2h2 2v-4-4h2 2v-2-2h4 4v-2-2h8 8v2 2h4 4v2 2h2 2v4 4h2 2v8 8h-2-2v4 4h2 2v4 4h-2-2v6 6h-2-2v2 2h-4-4v-2-2h-4-4v-2-2h-2-2v2 2h-2-2v2 2h-4-4zm12-8v-2h-2-2v2 2h2 2zm12 0v-2h-4-4v2 2h4 4zm-16-10v-4h10 10v-2-2h2 2v-2-2h-2-2v-2-2h-2-2v-2-2h-2-2v2 2h-4-4v-2-2h-2-2v-2-2h-2-2v-2-2h-2-2v8 8h2 2v2 2h2 2v2 2h-4-4v4 4h4 4zm-4-16v-4h2 2v4 4h-2-2zm32 16v-4h-2-2v4 4h2 2zm-228-74v-2h-2-2v-6-6h-2-2v-2-2h-2-2v-4-4h2 2v-2-2h2 2v-2-2h2 2v-2-2h-2-2v-2-2h-2-2v-6-6h2 2v-4-4h2 2v-2-2h4 4v-2-2h8 8v2 2h4 4v2 2h2 2v4 4h2 2v6 6h-2-2v2 2h-2-2v2 2h2 2v2 2h2 2v2 2h2 2v4 4h-2-2v2 2h-2-2v6 6h-2-2v2 2h-6-6v-2-2h-4-4v2 2h-6-6zm12-8v-2h4 4v2 2h6 6v-6-6h-2-2v2 2h-12-12v-2-2h-2-2v6 6h6 6zm-16-14v-4h-2-2v4 4h2 2zm44 0v-4h-2-2v4 4h2 2zm-16-10v-2h2 2v-2-2h2 2v-2-2h-2-2v2 2h-4-4v2 2h-4-4v-2-2h-4-4v-2-2h-2-2v2 2h2 2v2 2h2 2v2 2h8 8zm60 32v-2h-2-2v-2-2h-6-6v-2-2h-4-4v-2-2h-2-2v-4-4h2 2v-4-4h2 2v-2-2h-2-2v-2-2h-2-2v-6-6h2 2v-4-4h2 2v-2-2h4 4v-2-2h8 8v2 2h4 4v2 2h2 2v4 4h2 2v6 6h2 2v4 4h-2-2v2 2h-2-2v12 12h-2-2v2 2h-6-6zm12-12v-6h-2-2v2 2h-12-12v-4-4h-4-4v4 4h4 4v2 2h8 8v2 2h6 6zm-8-16v-2h2 2v-2-2h2 2v2 2h4 4v-4-4h-2-2v2 2h-2-2v-2-2h-2-2v2 2h-4-4v2 2h-4-4v-2-2h-4-4v-2-2h-2-2v2 2h2 2v2 2h2 2v2 2h8 8zm40 28v-2h-2-2v-6-6h-2-2v-2-2h-2-2v-4-4h2 2v-2-2h2 2v-2-2h2 2v-2-2h-2-2v-2-2h-2-2v-6-6h2 2v-4-4h2 2v-2-2h4 4v-2-2h8 8v2 2h4 4v2 2h2 2v4 4h2 2v6 6h-2-2v2 2h-2-2v2 2h2 2v2 2h2 2v2 2h2 2v4 4h-2-2v2 2h-2-2v6 6h-2-2v2 2h-6-6v-2-2h-4-4v2 2h-6-6zm12-8v-2h4 4v2 2h6 6v-6-6h-2-2v2 2h-12-12v-2-2h-2-2v6 6h6 6zm-16-14v-4h-2-2v4 4h2 2zm44 0v-4h-2-2v4 4h2 2zm-16-10v-2h2 2v-2-2h2 2v-2-2h-2-2v2 2h-4-4v2 2h-4-4v-2-2h-4-4v-2-2h-2-2v2 2h2 2v2 2h2 2v2 2h8 8zm40 32v-2h-2-2v-12-12h-2-2v-2-2h-2-2v-4-4h2 2v-6-6h2 2v-4-4h2 2v-2-2h4 4v-2-2h8 8v2 2h4 4v2 2h2 2v4 4h2 2v6 6h-2-2v2 2h-2-2v2 2h2 2v4 4h2 2v4 4h-2-2v2 2h-4-4v2 2h-6-6v2 2h-2-2v2 2h-6-6zm12-8v-2h8 8v-2-2h4 4v-4-4h-4-4v4 4h-12-12v-2-2h-2-2v6 6h6 6zm12-20v-2h2 2v-2-2h2 2v-2-2h-2-2v2 2h-4-4v2 2h-4-4v-2-2h-4-4v-2-2h-2-2v2 2h-2-2v-2-2h-2-2v4 4h4 4v-2-2h2 2v2 2h2 2v2 2h8 8zm-216-68v-2h-2-2v-6-6h-2-2v-2-2h-2-2v-4-4h2 2v-2-2h2 2v-2-2h2 2v-2-2h-2-2v-2-2h-2-2v-6-6h2 2v-4-4h2 2v-2-2h4 4v-2-2h8 8v2 2h4 4v2 2h2 2v4 4h2 2v6 6h-2-2v2 2h-2-2v2 2h2 2v2 2h2 2v2 2h2 2v4 4h-2-2v2 2h-2-2v6 6h-2-2v2 2h-6-6v-2-2h-4-4v2 2h-6-6zm12-8v-2h4 4v2 2h6 6v-6-6h4 4v-4-4h-2-2v-2-2h-2-2v6 6h-2-2v2 2h-12-12v-2-2h-2-2v-6-6h-2-2v2 2h-2-2v4 4h4 4v6 6h6 6zm12-24v-2h2 2v-2-2h2 2v-2-2h2 2v-4-4h-2-2v2 2h-10-10v-2-2h-4-4v-2-2h-2-2v2 2h-2-2v4 4h2 2v2 2h2 2v2 2h2 2v2 2h8 8zm-16-6v-4h2 2v4 4h-2-2zm12 0v-4h2 2v4 4h-2-2zm64 38v-2h-2-2v-2-2h-8-8v-2-2h-2-2v-6-6h-2-2v-4-4h2 2v-4-4h-2-2v-6-6h2 2v-4-4h2 2v-2-2h4 4v-2-2h8 8v2 2h4 4v2 2h2 2v4 4h2 2v8 8h2 2v4 4h-2-2v2 2h-2-2v10 10h-2-2v2 2h-6-6zm12-12v-6h-4-4v2 2h-2-2v4 4h6 6zm-16 0v-2h-8-8v2 2h8 8zm-8-10v-4h8 8v-2-2h2 2v-2-2h2 2v2 2h2 2v2 2h2 2v-4-4h-4-4v-2-2h2 2v-4-4h-2-2v2 2h-10-10v-2-2h-4-4v-2-2h-2-2v2 2h-2-2v4 4h2 2v2 2h2 2v2 2h2 2v2 2h-4-4v-2-2h-2-2v2 2h2 2v4 4h4 4zm0-12v-4h2 2v4 4h-2-2zm12 0v-4h2 2v4 4h-2-2zm44 34v-2h-2-2v-6-6h-2-2v-2-2h-2-2v-4-4h2 2v-2-2h2 2v-2-2h2 2v-2-2h-2-2v-2-2h-2-2v-6-6h2 2v-4-4h2 2v-2-2h4 4v-2-2h8 8v2 2h4 4v2 2h2 2v4 4h2 2v6 6h-2-2v2 2h-2-2v2 2h2 2v2 2h2 2v2 2h2 2v4 4h-2-2v2 2h-2-2v6 6h-2-2v2 2h-6-6v-2-2h-4-4v2 2h-6-6zm12-8v-2h4 4v2 2h6 6v-6-6h4 4v-4-4h-2-2v-2-2h-2-2v6 6h-2-2v2 2h-12-12v-2-2h-2-2v-6-6h-2-2v2 2h-2-2v4 4h4 4v6 6h6 6zm12-24v-2h2 2v-2-2h2 2v-2-2h2 2v-4-4h-2-2v2 2h-10-10v-2-2h-4-4v-2-2h-2-2v2 2h-2-2v4 4h2 2v2 2h2 2v2 2h2 2v2 2h8 8zm-16-6v-4h2 2v4 4h-2-2zm12 0v-4h2 2v4 4h-2-2zm44 38v-2h-2-2v-10-10h-2-2v-2-2h-2-2v-4-4h2 2v-8-8h2 2v-4-4h2 2v-2-2h4 4v-2-2h8 8v2 2h4 4v2 2h2 2v4 4h2 2v6 6h-2-2v4 4h2 2v4 4h-2-2v6 6h-2-2v2 2h-8-8v2 2h-2-2v2 2h-6-6zm12-10v-4h-2-2v-2-2h-4-4v6 6h6 6zm20-2v-2h-8-8v2 2h8 8zm0-10v-4h2 2v-2-2h-2-2v2 2h-4-4v-2-2h2 2v-2-2h2 2v-2-2h2 2v-4-4h-2-2v2 2h-10-10v-2-2h-4-4v-2-2h-2-2v2 2h-2-2v4 4h2 2v2 2h-4-4v4 4h2 2v-2-2h2 2v-2-2h2 2v2 2h2 2v2 2h8 8v4 4h4 4zm-24-12v-4h2 2v4 4h-2-2zm12 0v-4h2 2v4 4h-2-2z"/>
		<path id="path3011" class="s3" d="m16.58 370.58v-2h-2-2v-6-6h-2-2v-4-4h2 2v-4-4h-2-2v-8-8h2 2v-4-4h2 2v-2-2h4 4v-2-2h8 8v2 2h4 4v2 2h2 2v4 4h2 2v2 2h-2-2v6 6h-2-2v4 4h2 2v6 6h2 2v2 2h-2-2v2 2h-2-2v2 2h-4-4v-2-2h-2-2v-2-2h-2-2v2 2h-4-4v2 2h-4-4zm16-8v-2h-4-4v2 2h4 4zm8 0v-2h-2-2v2 2h2 2zm8-10v-4h-4-4v-2-2h2 2v-2-2h2 2v-6-6h2 2v-2-2h-2-2v-4-4h-4-4v-2-2h-8-8v2 2h-4-4v4 4h-2-2v8 8h2 2v2 2h2 2v2 2h10 10v4 4h4 4zm-32 0v-4h-2-2v4 4h2 2zm24-16v-4h2 2v4 4h-2-2zm48 34v-2h-2-2v-4-4h-2-2v-6-6h2 2v-2-2h-2-2v-2-2h-2-2v-2-2h-2-2v-8-8h2 2v-4-4h2 2v-2-2h4 4v-2-2h8 8v2 2h4 4v2 2h2 2v4 4h2 2v2 2h-2-2v6 6h-2-2v2 2h-2-2v2 2h-2-2v2 2h2 2v4 4h-2-2v2 2h2 2v4 4h-2-2v2 2h-8-8zm4-8v-2h4 4v2 2h2 2v-2-2h-2-2v-4-4h-4-4v4 4h-2-2v2 2h2 2zm12-20v-2h2 2v-2-2h2 2v-6-6h2 2v-2-2h-2-2v-4-4h-4-4v-2-2h-8-8v2 2h-4-4v4 4h-2-2v8 8h2 2v2 2h2 2v2 2h10 10zm0-10v-4h2 2v4 4h-2-2zm40 38v-2h-2-2v-4-4h2 2v-2-2h-2-2v-4-4h2 2v-2-2h-2-2v-2-2h-2-2v-8-8h2 2v-4-4h2 2v-2-2h4 4v-2-2h8 8v2 2h4 4v2 2h2 2v4 4h2 2v2 2h-2-2v6 6h-2-2v4 4h2 2v6 6h2 2v2 2h-2-2v2 2h-2-2v2 2h-4-4v-2-2h-2-2v-2-2h-2-2v2 2h-4-4v2 2h-4-4zm16-8v-2h-4-4v2 2h4 4zm8 0v-2h-2-2v2 2h2 2zm-16-10v-4h8 8v2 2h2 2v2 2h2 2v-4-4h-4-4v-2-2h2 2v-2-2h2 2v-6-6h2 2v-2-2h-2-2v-4-4h-4-4v-2-2h-8-8v2 2h-4-4v4 4h-2-2v8 8h2 2v2 2h4 4v2 2h-4-4v4 4h4 4zm16-16v-4h2 2v4 4h-2-2zm48 34v-2h-2-2v-4-4h-2-2v-6-6h2 2v-2-2h-2-2v-2-2h-2-2v-2-2h-2-2v-8-8h2 2v-4-4h2 2v-2-2h4 4v-2-2h8 8v2 2h4 4v2 2h2 2v4 4h2 2v2 2h-2-2v6 6h-2-2v2 2h-2-2v2 2h-2-2v2 2h2 2v4 4h-2-2v2 2h2 2v4 4h-2-2v2 2h-8-8zm4-8v-2h4 4v2 2h2 2v-2-2h-2-2v-4-4h-4-4v4 4h-2-2v2 2h2 2zm12-20v-2h2 2v-2-2h2 2v-6-6h2 2v-2-2h-2-2v-4-4h-4-4v-2-2h-8-8v2 2h-4-4v4 4h-2-2v8 8h2 2v2 2h2 2v2 2h10 10zm0-10v-4h2 2v4 4h-2-2zm-208-58v-2h-2-2v-4-4h2 2v-2-2h-2-2v-4-4h2 2v-2-2h-2-2v-2-2h-2-2v-2-2h-2-2v-6-6h-2-2v-2-2h2 2v-4-4h2 2v-2-2h4 4v-2-2h8 8v2 2h4 4v2 2h2 2v4 4h2 2v8 8h-2-2v2 2h-2-2v2 2h-2-2v2 2h2 2v6 6h-2-2v4 4h-2-2v2 2h-8-8zm4-8v-2h4 4v2 2h2 2v-2-2h-2-2v-4-4h-4-4v4 4h-2-2v2 2h2 2zm16-20v-2h2 2v-2-2h2 2v-8-8h-2-2v-4-4h-4-4v-2-2h-8-8v2 2h-4-4v4 4h-2-2v2 2h2 2v6 6h2 2v2 2h2 2v2 2h10 10zm-24-10v-4h2 2v4 4h-2-2zm60 38v-2h-2-2v-2-2h-2-2v-2-2h2 2v-6-6h2 2v-4-4h-2-2v-6-6h-2-2v-2-2h2 2v-4-4h2 2v-2-2h4 4v-2-2h8 8v2 2h4 4v2 2h2 2v4 4h2 2v8 8h-2-2v2 2h-2-2v2 2h2 2v4 4h-2-2v2 2h2 2v4 4h-2-2v2 2h-4-4v-2-2h-4-4v-2-2h-2-2v2 2h-2-2v2 2h-4-4zm12-8v-2h-2-2v2 2h2 2zm12 0v-2h-4-4v2 2h4 4zm-20-8v-2h2 2v-2-2h8 8v4 4h4 4v-4-4h-4-4v-2-2h4 4v-2-2h2 2v-8-8h-2-2v-4-4h-4-4v-2-2h-8-8v2 2h-4-4v4 4h-2-2v2 2h2 2v6 6h2 2v2 2h2 2v2 2h-4-4v4 4h2 2zm0-18v-4h2 2v4 4h-2-2zm68 34v-2h-2-2v-4-4h2 2v-2-2h-2-2v-4-4h2 2v-2-2h-2-2v-2-2h-2-2v-2-2h-2-2v-6-6h-2-2v-2-2h2 2v-4-4h2 2v-2-2h4 4v-2-2h8 8v2 2h4 4v2 2h2 2v4 4h2 2v8 8h-2-2v2 2h-2-2v2 2h-2-2v2 2h2 2v6 6h-2-2v4 4h-2-2v2 2h-8-8zm4-8v-2h4 4v2 2h2 2v-2-2h-2-2v-4-4h-4-4v4 4h-2-2v2 2h2 2zm16-20v-2h2 2v-2-2h2 2v-8-8h-2-2v-4-4h-4-4v-2-2h-8-8v2 2h-4-4v4 4h-2-2v2 2h2 2v6 6h2 2v2 2h2 2v2 2h10 10zm-24-10v-4h2 2v4 4h-2-2zm60 38v-2h-2-2v-2-2h-2-2v-2-2h2 2v-6-6h2 2v-4-4h-2-2v-6-6h-2-2v-2-2h2 2v-4-4h2 2v-2-2h4 4v-2-2h8 8v2 2h4 4v2 2h2 2v4 4h2 2v8 8h-2-2v4 4h2 2v4 4h-2-2v6 6h-2-2v2 2h-4-4v-2-2h-4-4v-2-2h-2-2v2 2h-2-2v2 2h-4-4zm12-8v-2h-2-2v2 2h2 2zm12 0v-2h-4-4v2 2h4 4zm-16-10v-4h10 10v-2-2h2 2v-2-2h2 2v-8-8h-2-2v-4-4h-4-4v-2-2h-8-8v2 2h-4-4v4 4h-2-2v2 2h2 2v6 6h2 2v2 2h2 2v2 2h-4-4v4 4h4 4zm-4-16v-4h2 2v4 4h-2-2zm32 16v-4h-2-2v4 4h2 2zm-228-74v-2h-2-2v-6-6h-2-2v-2-2h-2-2v-4-4h2 2v-2-2h2 2v-2-2h2 2v-2-2h-2-2v-2-2h-2-2v-6-6h2 2v-4-4h2 2v-2-2h4 4v-2-2h8 8v2 2h4 4v2 2h2 2v4 4h2 2v6 6h-2-2v2 2h-2-2v2 2h2 2v2 2h2 2v2 2h2 2v4 4h-2-2v2 2h-2-2v6 6h-2-2v2 2h-6-6v-2-2h-4-4v2 2h-6-6zm12-8v-2h4 4v2 2h6 6v-6-6h-2-2v2 2h-12-12v-2-2h-2-2v6 6h6 6zm-16-14v-4h-2-2v4 4h2 2zm44 0v-4h-2-2v4 4h2 2zm-16-10v-2h2 2v-2-2h2 2v-2-2h2 2v-6-6h-2-2v-4-4h-4-4v-2-2h-8-8v2 2h-4-4v4 4h-2-2v6 6h2 2v2 2h2 2v2 2h2 2v2 2h8 8zm60 32v-2h-2-2v-2-2h-6-6v-2-2h-4-4v-2-2h-2-2v-4-4h2 2v-4-4h2 2v-2-2h-2-2v-2-2h-2-2v-6-6h2 2v-4-4h2 2v-2-2h4 4v-2-2h8 8v2 2h4 4v2 2h2 2v4 4h2 2v6 6h2 2v4 4h-2-2v2 2h-2-2v12 12h-2-2v2 2h-6-6zm12-12v-6h-2-2v2 2h-12-12v-4-4h-4-4v4 4h4 4v2 2h8 8v2 2h6 6zm-8-16v-2h2 2v-2-2h2 2v2 2h4 4v-4-4h-2-2v-6-6h-2-2v-4-4h-4-4v-2-2h-8-8v2 2h-4-4v4 4h-2-2v6 6h2 2v2 2h2 2v2 2h2 2v2 2h8 8zm8-8v-2h2 2v2 2h-2-2zm32 36v-2h-2-2v-6-6h-2-2v-2-2h-2-2v-4-4h2 2v-2-2h2 2v-2-2h2 2v-2-2h-2-2v-2-2h-2-2v-6-6h2 2v-4-4h2 2v-2-2h4 4v-2-2h8 8v2 2h4 4v2 2h2 2v4 4h2 2v6 6h-2-2v2 2h-2-2v2 2h2 2v2 2h2 2v2 2h2 2v4 4h-2-2v2 2h-2-2v6 6h-2-2v2 2h-6-6v-2-2h-4-4v2 2h-6-6zm12-8v-2h4 4v2 2h6 6v-6-6h-2-2v2 2h-12-12v-2-2h-2-2v6 6h6 6zm-16-14v-4h-2-2v4 4h2 2zm44 0v-4h-2-2v4 4h2 2zm-16-10v-2h2 2v-2-2h2 2v-2-2h2 2v-6-6h-2-2v-4-4h-4-4v-2-2h-8-8v2 2h-4-4v4 4h-2-2v6 6h2 2v2 2h2 2v2 2h2 2v2 2h8 8zm40 32v-2h-2-2v-12-12h-2-2v-2-2h-2-2v-4-4h2 2v-6-6h2 2v-4-4h2 2v-2-2h4 4v-2-2h8 8v2 2h4 4v2 2h2 2v4 4h2 2v6 6h-2-2v2 2h-2-2v2 2h2 2v4 4h2 2v4 4h-2-2v2 2h-4-4v2 2h-6-6v2 2h-2-2v2 2h-6-6zm12-8v-2h8 8v-2-2h4 4v-4-4h-4-4v4 4h-12-12v-2-2h-2-2v6 6h6 6zm12-20v-2h2 2v-2-2h2 2v-2-2h2 2v-6-6h-2-2v-4-4h-4-4v-2-2h-8-8v2 2h-4-4v4 4h-2-2v6 6h-2-2v4 4h4 4v-2-2h2 2v2 2h2 2v2 2h8 8zm-28-8v-2h2 2v2 2h-2-2zm-188-60v-2h-2-2v-6-6h-2-2v-2-2h-2-2v-4-4h2 2v-2-2h2 2v-2-2h2 2v-2-2h-2-2v-2-2h-2-2v-6-6h2 2v-4-4h2 2v-2-2h4 4v-2-2h8 8v2 2h4 4v2 2h2 2v4 4h2 2v6 6h-2-2v2 2h-2-2v2 2h2 2v2 2h2 2v2 2h2 2v4 4h-2-2v2 2h-2-2v6 6h-2-2v2 2h-6-6v-2-2h-4-4v2 2h-6-6zm12-8v-2h4 4v2 2h6 6v-6-6h4 4v-4-4h-2-2v-2-2h-2-2v6 6h-2-2v2 2h-12-12v-2-2h-2-2v-6-6h-2-2v2 2h-2-2v4 4h4 4v6 6h6 6zm12-24v-2h2 2v-2-2h2 2v-2-2h2 2v-6-6h-2-2v-4-4h-4-4v-2-2h-8-8v2 2h-4-4v4 4h-2-2v6 6h2 2v2 2h2 2v2 2h2 2v2 2h8 8zm-16-6v-4h2 2v4 4h-2-2zm12 0v-4h2 2v4 4h-2-2zm64 38v-2h-2-2v-2-2h-8-8v-2-2h-2-2v-6-6h-2-2v-4-4h2 2v-4-4h-2-2v-6-6h2 2v-4-4h2 2v-2-2h4 4v-2-2h8 8v2 2h4 4v2 2h2 2v4 4h2 2v8 8h2 2v4 4h-2-2v2 2h-2-2v10 10h-2-2v2 2h-6-6zm12-12v-6h-4-4v2 2h-2-2v4 4h6 6zm-16 0v-2h-8-8v2 2h8 8zm-8-10v-4h8 8v-2-2h2 2v-2-2h2 2v2 2h2 2v2 2h2 2v-4-4h-4-4v-2-2h2 2v-6-6h-2-2v-4-4h-4-4v-2-2h-8-8v2 2h-4-4v4 4h-2-2v6 6h2 2v2 2h2 2v2 2h2 2v2 2h-4-4v-2-2h-2-2v2 2h2 2v4 4h4 4zm0-12v-4h2 2v4 4h-2-2zm12 0v-4h2 2v4 4h-2-2zm44 34v-2h-2-2v-6-6h-2-2v-2-2h-2-2v-4-4h2 2v-2-2h2 2v-2-2h2 2v-2-2h-2-2v-2-2h-2-2v-6-6h2 2v-4-4h2 2v-2-2h4 4v-2-2h8 8v2 2h4 4v2 2h2 2v4 4h2 2v6 6h-2-2v2 2h-2-2v2 2h2 2v2 2h2 2v2 2h2 2v4 4h-2-2v2 2h-2-2v6 6h-2-2v2 2h-6-6v-2-2h-4-4v2 2h-6-6zm12-8v-2h4 4v2 2h6 6v-6-6h4 4v-4-4h-2-2v-2-2h-2-2v6 6h-2-2v2 2h-12-12v-2-2h-2-2v-6-6h-2-2v2 2h-2-2v4 4h4 4v6 6h6 6zm12-24v-2h2 2v-2-2h2 2v-2-2h2 2v-6-6h-2-2v-4-4h-4-4v-2-2h-8-8v2 2h-4-4v4 4h-2-2v6 6h2 2v2 2h2 2v2 2h2 2v2 2h8 8zm-16-6v-4h2 2v4 4h-2-2zm12 0v-4h2 2v4 4h-2-2zm44 38v-2h-2-2v-10-10h-2-2v-2-2h-2-2v-4-4h2 2v-8-8h2 2v-4-4h2 2v-2-2h4 4v-2-2h8 8v2 2h4 4v2 2h2 2v4 4h2 2v6 6h-2-2v4 4h2 2v4 4h-2-2v6 6h-2-2v2 2h-8-8v2 2h-2-2v2 2h-6-6zm12-10v-4h-2-2v-2-2h-4-4v6 6h6 6zm20-2v-2h-8-8v2 2h8 8zm0-10v-4h2 2v-2-2h-2-2v2 2h-4-4v-2-2h2 2v-2-2h2 2v-2-2h2 2v-6-6h-2-2v-4-4h-4-4v-2-2h-8-8v2 2h-4-4v4 4h-2-2v6 6h2 2v2 2h-4-4v4 4h2 2v-2-2h2 2v-2-2h2 2v2 2h2 2v2 2h8 8v4 4h4 4zm-24-12v-4h2 2v4 4h-2-2zm12 0v-4h2 2v4 4h-2-2z"/>
		<path id="path3009" class="s4" d="m16.58 370.58v-2h-2-2v-6-6h-2-2v-4-4h2 2v-4-4h-2-2v-8-8h2 2v-4-4h2 2v-2-2h4 4v-2-2h8 8v2 2h4 4v2 2h2 2v4 4h2 2v2 2h-2-2v6 6h-2-2v4 4h2 2v6 6h2 2v2 2h-2-2v2 2h-2-2v2 2h-4-4v-2-2h-2-2v-2-2h-2-2v2 2h-4-4v2 2h-4-4zm16-8v-2h2 2v2 2h2 2v-4-4h4 4v-4-4h-4-4v-2-2h2 2v-2-2h2 2v-6-6h2 2v-2-2h-2-2v-4-4h-4-4v-2-2h-8-8v2 2h-4-4v4 4h-2-2v8 8h2 2v2 2h2 2v2 2h10 10v4 4h-2-2v-2-2h-8-8v4 4h2 2v2 2h4 4zm8-26v-4h2 2v4 4h-2-2zm-24 16v-4h-2-2v4 4h2 2zm72 18v-2h-2-2v-4-4h-2-2v-6-6h2 2v-2-2h-2-2v-2-2h-2-2v-2-2h-2-2v-8-8h2 2v-4-4h2 2v-2-2h4 4v-2-2h8 8v2 2h4 4v2 2h2 2v4 4h2 2v2 2h-2-2v6 6h-2-2v2 2h-2-2v2 2h-2-2v2 2h2 2v4 4h-2-2v2 2h2 2v4 4h-2-2v2 2h-8-8zm4-8v-2h4 4v2 2h2 2v-2-2h-2-2v-4-4h2 2v-2-2h-2-2v2 2h-4-4v-2-2h-4-4v6 6h2 2v2 2h2 2zm-4-6v-4h2 2v4 4h-2-2zm16-14v-2h2 2v-2-2h2 2v-6-6h2 2v-2-2h-2-2v-4-4h-4-4v-2-2h-8-8v2 2h-4-4v4 4h-2-2v8 8h2 2v2 2h2 2v2 2h10 10zm0-10v-4h2 2v4 4h-2-2zm40 38v-2h-2-2v-4-4h2 2v-2-2h-2-2v-4-4h2 2v-2-2h-2-2v-2-2h-2-2v-8-8h2 2v-4-4h2 2v-2-2h4 4v-2-2h8 8v2 2h4 4v2 2h2 2v4 4h2 2v2 2h-2-2v6 6h-2-2v4 4h2 2v6 6h2 2v2 2h-2-2v2 2h-2-2v2 2h-4-4v-2-2h-2-2v-2-2h-2-2v2 2h-4-4v2 2h-4-4zm16-8v-2h2 2v2 2h2 2v-2-2h2 2v-2-2h2 2v-4-4h-4-4v-2-2h2 2v-2-2h2 2v-6-6h2 2v-2-2h-2-2v-4-4h-4-4v-2-2h-8-8v2 2h-4-4v4 4h-2-2v8 8h2 2v2 2h4 4v2 2h-4-4v4 4h4 4v4 4h4 4zm-8-10v-4h8 8v2 2h2 2v2 2h-2-2v-2-2h-6-6v2 2h-2-2zm16-16v-4h2 2v4 4h-2-2zm48 34v-2h-2-2v-4-4h-2-2v-6-6h2 2v-2-2h-2-2v-2-2h-2-2v-2-2h-2-2v-8-8h2 2v-4-4h2 2v-2-2h4 4v-2-2h8 8v2 2h4 4v2 2h2 2v4 4h2 2v2 2h-2-2v6 6h-2-2v2 2h-2-2v2 2h-2-2v2 2h2 2v4 4h-2-2v2 2h2 2v4 4h-2-2v2 2h-8-8zm4-8v-2h4 4v2 2h2 2v-2-2h-2-2v-4-4h2 2v-2-2h-2-2v2 2h-4-4v-2-2h-4-4v6 6h2 2v2 2h2 2zm-4-6v-4h2 2v4 4h-2-2zm16-14v-2h2 2v-2-2h2 2v-6-6h2 2v-2-2h-2-2v-4-4h-4-4v-2-2h-8-8v2 2h-4-4v4 4h-2-2v8 8h2 2v2 2h2 2v2 2h10 10zm0-10v-4h2 2v4 4h-2-2zm-208-58v-2h-2-2v-4-4h2 2v-2-2h-2-2v-4-4h2 2v-2-2h-2-2v-2-2h-2-2v-2-2h-2-2v-6-6h-2-2v-2-2h2 2v-4-4h2 2v-2-2h4 4v-2-2h8 8v2 2h4 4v2 2h2 2v4 4h2 2v8 8h-2-2v2 2h-2-2v2 2h-2-2v2 2h2 2v6 6h-2-2v4 4h-2-2v2 2h-8-8zm4-8v-2h4 4v2 2h2 2v-2-2h2 2v-6-6h-4-4v2 2h-4-4v-2-2h-2-2v2 2h2 2v4 4h-2-2v2 2h2 2zm8-6v-4h2 2v4 4h-2-2zm8-14v-2h2 2v-2-2h2 2v-8-8h-2-2v-4-4h-4-4v-2-2h-8-8v2 2h-4-4v4 4h-2-2v2 2h2 2v6 6h2 2v2 2h2 2v2 2h10 10zm-24-10v-4h2 2v4 4h-2-2zm60 38v-2h-2-2v-2-2h-2-2v-2-2h2 2v-6-6h2 2v-4-4h-2-2v-6-6h-2-2v-2-2h2 2v-4-4h2 2v-2-2h4 4v-2-2h8 8v2 2h4 4v2 2h2 2v4 4h2 2v8 8h-2-2v2 2h-2-2v2 2h2 2v4 4h-2-2v2 2h2 2v4 4h-2-2v2 2h-4-4v-2-2h-4-4v-2-2h-2-2v2 2h-2-2v2 2h-4-4zm12-8v-2h2 2v2 2h4 4v-4-4h4 4v-4-4h-4-4v-2-2h4 4v-2-2h2 2v-8-8h-2-2v-4-4h-4-4v-2-2h-8-8v2 2h-4-4v4 4h-2-2v2 2h2 2v6 6h2 2v2 2h2 2v2 2h-4-4v4 4h2 2v2 2h2 2v2 2h2 2zm-8-8v-2h2 2v-2-2h8 8v4 4h-2-2v-2-2h-6-6v2 2h-2-2zm0-18v-4h2 2v4 4h-2-2zm68 34v-2h-2-2v-4-4h2 2v-2-2h-2-2v-4-4h2 2v-2-2h-2-2v-2-2h-2-2v-2-2h-2-2v-6-6h-2-2v-2-2h2 2v-4-4h2 2v-2-2h4 4v-2-2h8 8v2 2h4 4v2 2h2 2v4 4h2 2v8 8h-2-2v2 2h-2-2v2 2h-2-2v2 2h2 2v6 6h-2-2v4 4h-2-2v2 2h-8-8zm4-8v-2h4 4v2 2h2 2v-2-2h2 2v-6-6h-4-4v2 2h-4-4v-2-2h-2-2v2 2h2 2v4 4h-2-2v2 2h2 2zm8-6v-4h2 2v4 4h-2-2zm8-14v-2h2 2v-2-2h2 2v-8-8h-2-2v-4-4h-4-4v-2-2h-8-8v2 2h-4-4v4 4h-2-2v2 2h2 2v6 6h2 2v2 2h2 2v2 2h10 10zm-24-10v-4h2 2v4 4h-2-2zm60 38v-2h-2-2v-2-2h-2-2v-2-2h2 2v-6-6h2 2v-4-4h-2-2v-6-6h-2-2v-2-2h2 2v-4-4h2 2v-2-2h4 4v-2-2h8 8v2 2h4 4v2 2h2 2v4 4h2 2v8 8h-2-2v4 4h2 2v4 4h-2-2v6 6h-2-2v2 2h-4-4v-2-2h-4-4v-2-2h-2-2v2 2h-2-2v2 2h-4-4zm12-8v-2h2 2v2 2h4 4v-2-2h2 2v-4-4h-8-8v2 2h-2-2v-4-4h10 10v-2-2h2 2v-2-2h2 2v-8-8h-2-2v-4-4h-4-4v-2-2h-8-8v2 2h-4-4v4 4h-2-2v2 2h2 2v6 6h2 2v2 2h2 2v2 2h-4-4v4 4h4 4v4 4h2 2zm-8-26v-4h2 2v4 4h-2-2zm32 16v-4h-2-2v4 4h2 2zm-228-74v-2h-2-2v-6-6h-2-2v-2-2h-2-2v-4-4h2 2v-2-2h2 2v-2-2h2 2v-2-2h-2-2v-2-2h-2-2v-6-6h2 2v-4-4h2 2v-2-2h4 4v-2-2h8 8v2 2h4 4v2 2h2 2v4 4h2 2v6 6h-2-2v2 2h-2-2v2 2h2 2v2 2h2 2v2 2h2 2v4 4h-2-2v2 2h-2-2v6 6h-2-2v2 2h-6-6v-2-2h-4-4v2 2h-6-6zm12-8v-2h4 4v2 2h6 6v-6-6h-2-2v-2-2h2 2v-6-6h-2-2v-2-2h2 2v-2-2h2 2v-6-6h-2-2v-4-4h-4-4v-2-2h-8-8v2 2h-4-4v4 4h-2-2v6 6h2 2v2 2h2 2v2 2h-2-2v6 6h2 2v2 2h-2-2v6 6h6 6zm-8-8v-2h12 12v2 2h-12-12zm4-12v-2h-2-2v-2-2h2 2v2 2h8 8v-2-2h2 2v2 2h-2-2v2 2h-8-8zm-12 6v-4h-2-2v4 4h2 2zm44 0v-4h-2-2v4 4h2 2zm44 22v-2h-2-2v-2-2h-6-6v-2-2h-4-4v-2-2h-2-2v-4-4h2 2v-4-4h2 2v-2-2h-2-2v-2-2h-2-2v-6-6h2 2v-4-4h2 2v-2-2h4 4v-2-2h8 8v2 2h4 4v2 2h2 2v4 4h2 2v6 6h2 2v4 4h-2-2v2 2h-2-2v12 12h-2-2v2 2h-6-6zm12-12v-6h-2-2v-2-2h2 2v-4-4h4 4v-4-4h-2-2v-6-6h-2-2v-4-4h-4-4v-2-2h-8-8v2 2h-4-4v4 4h-2-2v6 6h2 2v2 2h2 2v2 2h-2-2v2 2h2 2v2 2h-4-4v4 4h4 4v2 2h8 8v2 2h6 6zm-28-6v-4h2 2v-2-2h-2-2v-2-2h2 2v2 2h8 8v-2-2h2 2v-2-2h2 2v-2-2h2 2v2 2h-2-2v2 2h-2-2v2 2h-2-2v2 2h-8-8v2 2h10 10v2 2h-12-12zm60 18v-2h-2-2v-6-6h-2-2v-2-2h-2-2v-4-4h2 2v-2-2h2 2v-2-2h2 2v-2-2h-2-2v-2-2h-2-2v-6-6h2 2v-4-4h2 2v-2-2h4 4v-2-2h8 8v2 2h4 4v2 2h2 2v4 4h2 2v6 6h-2-2v2 2h-2-2v2 2h2 2v2 2h2 2v2 2h2 2v4 4h-2-2v2 2h-2-2v6 6h-2-2v2 2h-6-6v-2-2h-4-4v2 2h-6-6zm12-8v-2h4 4v2 2h6 6v-6-6h-2-2v-2-2h2 2v-6-6h-2-2v-2-2h2 2v-2-2h2 2v-6-6h-2-2v-4-4h-4-4v-2-2h-8-8v2 2h-4-4v4 4h-2-2v6 6h2 2v2 2h2 2v2 2h-2-2v6 6h2 2v2 2h-2-2v6 6h6 6zm-8-8v-2h12 12v2 2h-12-12zm4-12v-2h-2-2v-2-2h2 2v2 2h8 8v-2-2h2 2v2 2h-2-2v2 2h-8-8zm-12 6v-4h-2-2v4 4h2 2zm44 0v-4h-2-2v4 4h2 2zm24 22v-2h-2-2v-12-12h-2-2v-2-2h-2-2v-4-4h2 2v-6-6h2 2v-4-4h2 2v-2-2h4 4v-2-2h8 8v2 2h4 4v2 2h2 2v4 4h2 2v6 6h-2-2v2 2h-2-2v2 2h2 2v4 4h2 2v4 4h-2-2v2 2h-4-4v2 2h-6-6v2 2h-2-2v2 2h-6-6zm12-8v-2h8 8v-2-2h4 4v-4-4h-4-4v-2-2h2 2v-2-2h-2-2v-2-2h2 2v-2-2h2 2v-6-6h-2-2v-4-4h-4-4v-2-2h-8-8v2 2h-4-4v4 4h-2-2v6 6h-2-2v4 4h4 4v4 4h2 2v2 2h-2-2v6 6h6 6zm-8-8v-2h10 10v-2-2h-8-8v-2-2h-2-2v-2-2h-2-2v-2-2h-2-2v-2-2h2 2v2 2h2 2v2 2h2 2v2 2h8 8v-2-2h2 2v2 2h-2-2v2 2h2 2v4 4h-12-12zm-196-80v-2h-2-2v-6-6h-2-2v-2-2h-2-2v-4-4h2 2v-2-2h2 2v-2-2h2 2v-2-2h-2-2v-2-2h-2-2v-6-6h2 2v-4-4h2 2v-2-2h4 4v-2-2h8 8v2 2h4 4v2 2h2 2v4 4h2 2v6 6h-2-2v2 2h-2-2v2 2h2 2v2 2h2 2v2 2h2 2v4 4h-2-2v2 2h-2-2v6 6h-2-2v2 2h-6-6v-2-2h-4-4v2 2h-6-6zm12-8v-2h4 4v2 2h6 6v-6-6h4 4v-4-4h-2-2v-2-2h-2-2v-2-2h-2-2v-2-2h2 2v-2-2h2 2v-6-6h-2-2v-4-4h-4-4v-2-2h-8-8v2 2h-4-4v4 4h-2-2v6 6h2 2v2 2h2 2v2 2h-2-2v2 2h-2-2v2 2h-2-2v4 4h4 4v6 6h6 6zm-8-8v-2h-2-2v-4-4h2 2v4 4h12 12v-4-4h2 2v4 4h-2-2v2 2h-12-12zm4-12v-2h-2-2v-2-2h2 2v-4-4h2 2v4 4h-2-2v2 2h8 8v-2-2h-2-2v-4-4h2 2v4 4h2 2v2 2h-2-2v2 2h-8-8zm76 28v-2h-2-2v-2-2h-8-8v-2-2h-2-2v-6-6h-2-2v-4-4h2 2v-4-4h-2-2v-6-6h2 2v-4-4h2 2v-2-2h4 4v-2-2h8 8v2 2h4 4v2 2h2 2v4 4h2 2v8 8h2 2v4 4h-2-2v2 2h-2-2v10 10h-2-2v2 2h-6-6zm12-12v-6h-4-4v-2-2h4 4v-4-4h2 2v2 2h2 2v-4-4h-4-4v-2-2h2 2v-6-6h-2-2v-4-4h-4-4v-2-2h-8-8v2 2h-4-4v4 4h-2-2v6 6h2 2v2 2h2 2v2 2h2 2v2 2h-4-4v-2-2h-2-2v2 2h2 2v4 4h4 4v-4-4h8 8v2 2h-6-6v2 2h6 6v2 2h-2-2v4 4h6 6zm-8-16v-2h-2-2v-4-4h2 2v4 4h2 2v-2-2h2 2v2 2h-2-2v2 2h-2-2zm-16-6v-4h2 2v4 4h-2-2zm8 22v-2h-8-8v2 2h8 8zm48 12v-2h-2-2v-6-6h-2-2v-2-2h-2-2v-4-4h2 2v-2-2h2 2v-2-2h2 2v-2-2h-2-2v-2-2h-2-2v-6-6h2 2v-4-4h2 2v-2-2h4 4v-2-2h8 8v2 2h4 4v2 2h2 2v4 4h2 2v6 6h-2-2v2 2h-2-2v2 2h2 2v2 2h2 2v2 2h2 2v4 4h-2-2v2 2h-2-2v6 6h-2-2v2 2h-6-6v-2-2h-4-4v2 2h-6-6zm12-8v-2h4 4v2 2h6 6v-6-6h4 4v-4-4h-2-2v-2-2h-2-2v-2-2h-2-2v-2-2h2 2v-2-2h2 2v-6-6h-2-2v-4-4h-4-4v-2-2h-8-8v2 2h-4-4v4 4h-2-2v6 6h2 2v2 2h2 2v2 2h-2-2v2 2h-2-2v2 2h-2-2v4 4h4 4v6 6h6 6zm-8-8v-2h-2-2v-4-4h2 2v4 4h12 12v-4-4h2 2v4 4h-2-2v2 2h-12-12zm4-12v-2h-2-2v-2-2h2 2v-4-4h2 2v4 4h-2-2v2 2h8 8v-2-2h-2-2v-4-4h2 2v4 4h2 2v2 2h-2-2v2 2h-8-8zm56 28v-2h-2-2v-10-10h-2-2v-2-2h-2-2v-4-4h2 2v-8-8h2 2v-4-4h2 2v-2-2h4 4v-2-2h8 8v2 2h4 4v2 2h2 2v4 4h2 2v6 6h-2-2v4 4h2 2v4 4h-2-2v6 6h-2-2v2 2h-8-8v2 2h-2-2v2 2h-6-6zm12-10v-4h-2-2v-2-2h6 6v-2-2h-6-6v-2-2h8 8v4 4h4 4v-4-4h2 2v-2-2h-2-2v2 2h-4-4v-2-2h2 2v-2-2h2 2v-2-2h2 2v-6-6h-2-2v-4-4h-4-4v-2-2h-8-8v2 2h-4-4v4 4h-2-2v6 6h2 2v2 2h-4-4v4 4h2 2v-2-2h2 2v4 4h4 4v2 2h-4-4v6 6h6 6zm-8-18v-2h-2-2v-2-2h2 2v2 2h2 2v-4-4h2 2v4 4h-2-2v2 2h-2-2zm16-6v-4h2 2v4 4h-2-2zm12 22v-2h-8-8v2 2h8 8z"/>
		<path id="path3007" class="s5" d="m16.58 370.58v-2h-2-2v-6-6h-2-2v-4-4h2 2v-4-4h-2-2v-8-8h2 2v-4-4h2 2v-2-2h4 4v-2-2h8 8v2 2h4 4v2 2h2 2v4 4h2 2v2 2h-2-2v6 6h-2-2v4 4h2 2v6 6h2 2v2 2h-2-2v2 2h-2-2v2 2h-4-4v-2-2h-2-2v-2-2h-2-2v2 2h-4-4v2 2h-4-4zm8-4v-2h4 4v-2-2h2 2v2 2h2 2v2 2h4 4v-2-2h2 2v-2-2h-4-4v2 2h-2-2v-4-4h4 4v-4-4h-4-4v-2-2h2 2v-2-2h2 2v-6-6h2 2v-2-2h-2-2v-4-4h-4-4v-2-2h-8-8v2 2h-4-4v4 4h-2-2v8 8h2 2v2 2h2 2v2 2h10 10v4 4h-2-2v-2-2h-8-8v4 4h-2-2v4 4h4 4zm-4-4v-2h2 2v2 2h-2-2zm20-26v-4h2 2v4 4h-2-2zm-24 16v-4h-2-2v4 4h2 2zm72 18v-2h-2-2v-4-4h-2-2v-6-6h2 2v-2-2h-2-2v-2-2h-2-2v-2-2h-2-2v-8-8h2 2v-4-4h2 2v-2-2h4 4v-2-2h8 8v2 2h4 4v2 2h2 2v4 4h2 2v2 2h-2-2v6 6h-2-2v2 2h-2-2v2 2h-2-2v2 2h2 2v4 4h-2-2v2 2h2 2v4 4h-2-2v2 2h-8-8zm16-6v-4h-2-2v-4-4h2 2v-2-2h-2-2v2 2h-4-4v-2-2h-4-4v6 6h2 2v4 4h8 8zm-12-2v-2h-2-2v-4-4h2 2v4 4h4 4v2 2h-4-4zm12-20v-2h2 2v-2-2h2 2v-6-6h2 2v-2-2h-2-2v-4-4h-4-4v-2-2h-8-8v2 2h-4-4v4 4h-2-2v8 8h2 2v2 2h2 2v2 2h10 10zm0-10v-4h2 2v4 4h-2-2zm40 38v-2h-2-2v-4-4h2 2v-2-2h-2-2v-4-4h2 2v-2-2h-2-2v-2-2h-2-2v-8-8h2 2v-4-4h2 2v-2-2h4 4v-2-2h8 8v2 2h4 4v2 2h2 2v4 4h2 2v2 2h-2-2v6 6h-2-2v4 4h2 2v6 6h2 2v2 2h-2-2v2 2h-2-2v2 2h-4-4v-2-2h-2-2v-2-2h-2-2v2 2h-4-4v2 2h-4-4zm8-4v-2h4 4v-2-2h2 2v2 2h2 2v2 2h4 4v-2-2h2 2v-2-2h-4-4v-2-2h2 2v-4-4h-4-4v-2-2h2 2v-2-2h2 2v-6-6h2 2v-2-2h-2-2v-4-4h-4-4v-2-2h-8-8v2 2h-4-4v4 4h-2-2v8 8h2 2v2 2h4 4v2 2h-4-4v4 4h4 4v4 4h-2-2v-2-2h-2-2v4 4h4 4zm16-4v-2h2 2v2 2h-2-2zm-16-10v-4h8 8v2 2h2 2v2 2h-2-2v-2-2h-6-6v2 2h-2-2zm16-16v-4h2 2v4 4h-2-2zm48 34v-2h-2-2v-4-4h-2-2v-6-6h2 2v-2-2h-2-2v-2-2h-2-2v-2-2h-2-2v-8-8h2 2v-4-4h2 2v-2-2h4 4v-2-2h8 8v2 2h4 4v2 2h2 2v4 4h2 2v2 2h-2-2v6 6h-2-2v2 2h-2-2v2 2h-2-2v2 2h2 2v4 4h-2-2v2 2h2 2v4 4h-2-2v2 2h-8-8zm16-6v-4h-2-2v-4-4h2 2v-2-2h-2-2v2 2h-4-4v-2-2h-4-4v6 6h2 2v4 4h8 8zm-12-2v-2h-2-2v-4-4h2 2v4 4h4 4v2 2h-4-4zm12-20v-2h2 2v-2-2h2 2v-6-6h2 2v-2-2h-2-2v-4-4h-4-4v-2-2h-8-8v2 2h-4-4v4 4h-2-2v8 8h2 2v2 2h2 2v2 2h10 10zm0-10v-4h2 2v4 4h-2-2zm-208-58v-2h-2-2v-4-4h2 2v-2-2h-2-2v-4-4h2 2v-2-2h-2-2v-2-2h-2-2v-2-2h-2-2v-6-6h-2-2v-2-2h2 2v-4-4h2 2v-2-2h4 4v-2-2h8 8v2 2h4 4v2 2h2 2v4 4h2 2v8 8h-2-2v2 2h-2-2v2 2h-2-2v2 2h2 2v6 6h-2-2v4 4h-2-2v2 2h-8-8zm16-6v-4h2 2v-6-6h-4-4v2 2h-4-4v-2-2h-2-2v2 2h2 2v4 4h-2-2v4 4h8 8zm-12-2v-2h4 4v-4-4h2 2v4 4h-2-2v2 2h-4-4zm16-20v-2h2 2v-2-2h2 2v-8-8h-2-2v-4-4h-4-4v-2-2h-8-8v2 2h-4-4v4 4h-2-2v2 2h2 2v6 6h2 2v2 2h2 2v2 2h10 10zm-24-10v-4h2 2v4 4h-2-2zm60 38v-2h-2-2v-2-2h-2-2v-2-2h2 2v-6-6h2 2v-4-4h-2-2v-6-6h-2-2v-2-2h2 2v-4-4h2 2v-2-2h4 4v-2-2h8 8v2 2h4 4v2 2h2 2v4 4h2 2v8 8h-2-2v2 2h-2-2v2 2h2 2v4 4h-2-2v2 2h2 2v4 4h-2-2v2 2h-4-4v-2-2h-4-4v-2-2h-2-2v2 2h-2-2v2 2h-4-4zm8-4v-2h2 2v-2-2h2 2v2 2h4 4v2 2h4 4v-4-4h-2-2v2 2h-2-2v-4-4h4 4v-4-4h-4-4v-2-2h4 4v-2-2h2 2v-8-8h-2-2v-4-4h-4-4v-2-2h-8-8v2 2h-4-4v4 4h-2-2v2 2h2 2v6 6h2 2v2 2h2 2v2 2h-4-4v4 4h2 2v2 2h-4-4v2 2h2 2v2 2h4 4zm-4-4v-2h2 2v2 2h-2-2zm0-8v-2h2 2v-2-2h8 8v4 4h-2-2v-2-2h-6-6v2 2h-2-2zm0-18v-4h2 2v4 4h-2-2zm68 34v-2h-2-2v-4-4h2 2v-2-2h-2-2v-4-4h2 2v-2-2h-2-2v-2-2h-2-2v-2-2h-2-2v-6-6h-2-2v-2-2h2 2v-4-4h2 2v-2-2h4 4v-2-2h8 8v2 2h4 4v2 2h2 2v4 4h2 2v8 8h-2-2v2 2h-2-2v2 2h-2-2v2 2h2 2v6 6h-2-2v4 4h-2-2v2 2h-8-8zm16-6v-4h2 2v-6-6h-4-4v2 2h-4-4v-2-2h-2-2v2 2h2 2v4 4h-2-2v4 4h8 8zm-12-2v-2h4 4v-4-4h2 2v4 4h-2-2v2 2h-4-4zm16-20v-2h2 2v-2-2h2 2v-8-8h-2-2v-4-4h-4-4v-2-2h-8-8v2 2h-4-4v4 4h-2-2v2 2h2 2v6 6h2 2v2 2h2 2v2 2h10 10zm-24-10v-4h2 2v4 4h-2-2zm60 38v-2h-2-2v-2-2h-2-2v-2-2h2 2v-6-6h2 2v-4-4h-2-2v-6-6h-2-2v-2-2h2 2v-4-4h2 2v-2-2h4 4v-2-2h8 8v2 2h4 4v2 2h2 2v4 4h2 2v8 8h-2-2v4 4h2 2v4 4h-2-2v6 6h-2-2v2 2h-4-4v-2-2h-4-4v-2-2h-2-2v2 2h-2-2v2 2h-4-4zm8-4v-2h2 2v-2-2h2 2v2 2h4 4v2 2h4 4v-4-4h-2-2v-4-4h-8-8v2 2h-2-2v-4-4h10 10v-2-2h2 2v-2-2h2 2v-8-8h-2-2v-4-4h-4-4v-2-2h-8-8v2 2h-4-4v4 4h-2-2v2 2h2 2v6 6h2 2v2 2h2 2v2 2h-4-4v4 4h4 4v4 4h-2-2v-2-2h-4-4v2 2h2 2v2 2h4 4zm16-4v-2h2 2v2 2h-2-2zm-20-26v-4h2 2v4 4h-2-2zm32 16v-4h-2-2v4 4h2 2zm-228-74v-2h-2-2v-6-6h-2-2v-2-2h-2-2v-4-4h2 2v-2-2h2 2v-2-2h2 2v-2-2h-2-2v-2-2h-2-2v-6-6h2 2v-4-4h2 2v-2-2h4 4v-2-2h8 8v2 2h4 4v2 2h2 2v4 4h2 2v6 6h-2-2v2 2h-2-2v2 2h2 2v2 2h2 2v2 2h2 2v4 4h-2-2v2 2h-2-2v6 6h-2-2v2 2h-6-6v-2-2h-4-4v2 2h-6-6zm12-6v-4h4 4v4 4h6 6v-8-8h-2-2v-2-2h2 2v-6-6h-2-2v-2-2h2 2v-2-2h2 2v-6-6h-2-2v-4-4h-4-4v-2-2h-8-8v2 2h-4-4v4 4h-2-2v6 6h2 2v2 2h2 2v2 2h-2-2v6 6h2 2v2 2h-2-2v8 8h6 6zm-8-10v-2h12 12v2 2h-12-12zm4-12v-2h-2-2v-2-2h2 2v2 2h8 8v-2-2h2 2v2 2h-2-2v2 2h-8-8zm-12 6v-4h-2-2v4 4h2 2zm44 0v-4h-2-2v4 4h2 2zm44 22v-2h-2-2v-2-2h-6-6v-2-2h-4-4v-2-2h-2-2v-4-4h2 2v-4-4h2 2v-2-2h-2-2v-2-2h-2-2v-6-6h2 2v-4-4h2 2v-2-2h4 4v-2-2h8 8v2 2h4 4v2 2h2 2v4 4h2 2v6 6h2 2v4 4h-2-2v2 2h-2-2v12 12h-2-2v2 2h-6-6zm12-10v-8h-2-2v-2-2h2 2v-4-4h4 4v-4-4h-2-2v-6-6h-2-2v-4-4h-4-4v-2-2h-8-8v2 2h-4-4v4 4h-2-2v6 6h2 2v2 2h2 2v2 2h-2-2v2 2h2 2v2 2h-4-4v4 4h4 4v2 2h8 8v4 4h6 6zm-28-8v-4h2 2v-2-2h-2-2v-2-2h2 2v2 2h8 8v-2-2h2 2v-2-2h2 2v-2-2h2 2v2 2h-2-2v2 2h-2-2v2 2h-2-2v2 2h-8-8v2 2h10 10v2 2h-12-12zm60 18v-2h-2-2v-6-6h-2-2v-2-2h-2-2v-4-4h2 2v-2-2h2 2v-2-2h2 2v-2-2h-2-2v-2-2h-2-2v-6-6h2 2v-4-4h2 2v-2-2h4 4v-2-2h8 8v2 2h4 4v2 2h2 2v4 4h2 2v6 6h-2-2v2 2h-2-2v2 2h2 2v2 2h2 2v2 2h2 2v4 4h-2-2v2 2h-2-2v6 6h-2-2v2 2h-6-6v-2-2h-4-4v2 2h-6-6zm12-6v-4h4 4v4 4h6 6v-8-8h-2-2v-2-2h2 2v-6-6h-2-2v-2-2h2 2v-2-2h2 2v-6-6h-2-2v-4-4h-4-4v-2-2h-8-8v2 2h-4-4v4 4h-2-2v6 6h2 2v2 2h2 2v2 2h-2-2v6 6h2 2v2 2h-2-2v8 8h6 6zm-8-10v-2h12 12v2 2h-12-12zm4-12v-2h-2-2v-2-2h2 2v2 2h8 8v-2-2h2 2v2 2h-2-2v2 2h-8-8zm-12 6v-4h-2-2v4 4h2 2zm44 0v-4h-2-2v4 4h2 2zm24 22v-2h-2-2v-12-12h-2-2v-2-2h-2-2v-4-4h2 2v-6-6h2 2v-4-4h2 2v-2-2h4 4v-2-2h8 8v2 2h4 4v2 2h2 2v4 4h2 2v6 6h-2-2v2 2h-2-2v2 2h2 2v4 4h2 2v4 4h-2-2v2 2h-4-4v2 2h-6-6v2 2h-2-2v2 2h-6-6zm12-6v-4h8 8v-2-2h4 4v-4-4h-4-4v-2-2h2 2v-2-2h-2-2v-2-2h2 2v-2-2h2 2v-6-6h-2-2v-4-4h-4-4v-2-2h-8-8v2 2h-4-4v4 4h-2-2v6 6h-2-2v4 4h4 4v4 4h2 2v2 2h-2-2v8 8h6 6zm-8-10v-2h10 10v-2-2h-8-8v-2-2h-2-2v-2-2h-2-2v-2-2h-2-2v-2-2h2 2v2 2h2 2v2 2h2 2v2 2h8 8v-2-2h2 2v2 2h-2-2v2 2h2 2v4 4h-12-12zm-196-80v-2h-2-2v-6-6h-2-2v-2-2h-2-2v-4-4h2 2v-2-2h2 2v-2-2h2 2v-2-2h-2-2v-2-2h-2-2v-6-6h2 2v-4-4h2 2v-2-2h4 4v-2-2h8 8v2 2h4 4v2 2h2 2v4 4h2 2v6 6h-2-2v2 2h-2-2v2 2h2 2v2 2h2 2v2 2h2 2v4 4h-2-2v2 2h-2-2v6 6h-2-2v2 2h-6-6v-2-2h-4-4v2 2h-6-6zm12-6v-4h4 4v4 4h6 6v-8-8h4 4v-4-4h-2-2v-2-2h-2-2v-2-2h-2-2v-2-2h2 2v-2-2h2 2v-6-6h-2-2v-4-4h-4-4v-2-2h-8-8v2 2h-4-4v4 4h-2-2v6 6h2 2v2 2h2 2v2 2h-2-2v2 2h-2-2v2 2h-2-2v4 4h4 4v8 8h6 6zm-8-10v-2h-2-2v-4-4h2 2v4 4h12 12v-4-4h2 2v4 4h-2-2v2 2h-12-12zm4-12v-2h-2-2v-2-2h2 2v-4-4h2 2v4 4h-2-2v2 2h8 8v-2-2h-2-2v-4-4h2 2v4 4h2 2v2 2h-2-2v2 2h-8-8zm76 28v-2h-2-2v-2-2h-8-8v-2-2h-2-2v-6-6h-2-2v-4-4h2 2v-4-4h-2-2v-6-6h2 2v-4-4h2 2v-2-2h4 4v-2-2h8 8v2 2h4 4v2 2h2 2v4 4h2 2v8 8h2 2v4 4h-2-2v2 2h-2-2v10 10h-2-2v2 2h-6-6zm12-10v-8h-4-4v-2-2h4 4v-4-4h2 2v2 2h2 2v-4-4h-4-4v-2-2h2 2v-6-6h-2-2v-4-4h-4-4v-2-2h-8-8v2 2h-4-4v4 4h-2-2v6 6h2 2v2 2h2 2v2 2h2 2v2 2h-4-4v-2-2h-2-2v2 2h2 2v4 4h4 4v-4-4h8 8v2 2h-6-6v2 2h6 6v2 2h-2-2v6 6h6 6zm-8-18v-2h-2-2v-4-4h2 2v4 4h2 2v-2-2h2 2v2 2h-2-2v2 2h-2-2zm-16-6v-4h2 2v4 4h-2-2zm8 22v-2h-8-8v2 2h8 8zm48 12v-2h-2-2v-6-6h-2-2v-2-2h-2-2v-4-4h2 2v-2-2h2 2v-2-2h2 2v-2-2h-2-2v-2-2h-2-2v-6-6h2 2v-4-4h2 2v-2-2h4 4v-2-2h8 8v2 2h4 4v2 2h2 2v4 4h2 2v6 6h-2-2v2 2h-2-2v2 2h2 2v2 2h2 2v2 2h2 2v4 4h-2-2v2 2h-2-2v6 6h-2-2v2 2h-6-6v-2-2h-4-4v2 2h-6-6zm12-6v-4h4 4v4 4h6 6v-8-8h4 4v-4-4h-2-2v-2-2h-2-2v-2-2h-2-2v-2-2h2 2v-2-2h2 2v-6-6h-2-2v-4-4h-4-4v-2-2h-8-8v2 2h-4-4v4 4h-2-2v6 6h2 2v2 2h2 2v2 2h-2-2v2 2h-2-2v2 2h-2-2v4 4h4 4v8 8h6 6zm-8-10v-2h-2-2v-4-4h2 2v4 4h12 12v-4-4h2 2v4 4h-2-2v2 2h-12-12zm4-12v-2h-2-2v-2-2h2 2v-4-4h2 2v4 4h-2-2v2 2h8 8v-2-2h-2-2v-4-4h2 2v4 4h2 2v2 2h-2-2v2 2h-8-8zm56 28v-2h-2-2v-10-10h-2-2v-2-2h-2-2v-4-4h2 2v-8-8h2 2v-4-4h2 2v-2-2h4 4v-2-2h8 8v2 2h4 4v2 2h2 2v4 4h2 2v6 6h-2-2v4 4h2 2v4 4h-2-2v6 6h-2-2v2 2h-8-8v2 2h-2-2v2 2h-6-6zm12-8v-6h-2-2v-2-2h6 6v-2-2h-6-6v-2-2h8 8v4 4h4 4v-4-4h2 2v-2-2h-2-2v2 2h-4-4v-2-2h2 2v-2-2h2 2v-2-2h2 2v-6-6h-2-2v-4-4h-4-4v-2-2h-8-8v2 2h-4-4v4 4h-2-2v6 6h2 2v2 2h-4-4v4 4h2 2v-2-2h2 2v4 4h4 4v2 2h-4-4v8 8h6 6zm-8-20v-2h-2-2v-2-2h2 2v2 2h2 2v-4-4h2 2v4 4h-2-2v2 2h-2-2zm16-6v-4h2 2v4 4h-2-2zm12 22v-2h-8-8v2 2h8 8z"/>
	</g>
</svg>