<svg width="1458" height="1361" xmlns="http://www.w3.org/2000/svg" xmlns:xlink="http://www.w3.org/1999/xlink" xml:space="preserve" overflow="hidden"><defs><clipPath id="clip0"><rect x="867" y="775" width="1458" height="1361"/></clipPath></defs><g clip-path="url(#clip0)" transform="translate(-867 -775)"><path d="M867 969 964 969 964 1066 867 1066Z" fill-rule="evenodd"/><path d="M2228 969 2325 969 2325 1066 2228 1066Z" fill-rule="evenodd"/><path d="M867 1066 964 1066 964 1164 867 1164Z" fill-rule="evenodd"/><path d="M2228 1066 2325 1066 2325 1164 2228 1164Z" fill-rule="evenodd"/><path d="M867 1164 964 1164 964 1261 867 1261Z" fill-rule="evenodd"/><path d="M2228 1164 2325 1164 2325 1261 2228 1261Z" fill-rule="evenodd"/><path d="M964 1358 1062 1358 1062 1455 964 1455Z" fill-rule="evenodd"/><path d="M2131 1358 2228 1358 2228 1455 2131 1455Z" fill-rule="evenodd"/><path d="M867 1261 964 1261 964 1358 867 1358Z" fill-rule="evenodd"/><path d="M2228 1261 2325 1261 2325 1358 2228 1358Z" fill-rule="evenodd"/><path d="M964 1455 1062 1455 1062 1552 964 1552Z" fill-rule="evenodd"/><path d="M2131 1455 2228 1455 2228 1552 2131 1552Z" fill-rule="evenodd"/><path d="M1062 1552 1159 1552 1159 1650 1062 1650Z" fill-rule="evenodd"/><path d="M2034 1552 2131 1552 2131 1650 2034 1650Z" fill-rule="evenodd"/><path d="M1159 1650 1256 1650 1256 1747 1159 1747Z" fill-rule="evenodd"/><path d="M1936 1650 2034 1650 2034 1747 1936 1747Z" fill-rule="evenodd"/><path d="M1256 1747 1353 1747 1353 1844 1256 1844Z" fill-rule="evenodd"/><path d="M1839 1747 1936 1747 1936 1844 1839 1844Z" fill-rule="evenodd"/><path d="M1353 1844 1450 1844 1450 1941 1353 1941Z" fill-rule="evenodd"/><path d="M1742 1844 1839 1844 1839 1941 1742 1941Z" fill-rule="evenodd"/><path d="M964 872 1062 872 1062 969 964 969Z" fill-rule="evenodd"/><path d="M2131 872 2228 872 2228 969 2131 969Z" fill-rule="evenodd"/><path d="M1159 775 1256 775 1256 872 1159 872Z" fill-rule="evenodd"/><path d="M1062 775 1159 775 1159 872 1062 872Z" fill-rule="evenodd"/><path d="M1256 775 1353 775 1353 872 1256 872Z" fill-rule="evenodd"/><path d="M1159 872 1256 872 1256 969 1159 969Z" fill="#FFFFFF" fill-rule="evenodd" fill-opacity="0.2"/><path d="M1062 872 1159 872 1159 969 1062 969Z" fill="#FFFFFF" fill-rule="evenodd" fill-opacity="0.2"/><path d="M1256 872 1353 872 1353 969 1256 969Z" fill="#FFFFFF" fill-rule="evenodd" fill-opacity="0.2"/><path d="M1936 872 2034 872 2034 969 1936 969Z" fill="#FFFFFF" fill-rule="evenodd" fill-opacity="0.2"/><path d="M1839 872 1936 872 1936 969 1839 969Z" fill="#FFFFFF" fill-rule="evenodd" fill-opacity="0.2"/><path d="M2034 872 2131 872 2131 969 2034 969Z" fill="#FFFFFF" fill-rule="evenodd" fill-opacity="0.2"/><path d="M1353 872 1450 872 1450 969 1353 969Z" fill-rule="evenodd"/><path d="M964 969 1062 969 1062 1066 964 1066Z" fill="#FFFFFF" fill-rule="evenodd" fill-opacity="0.2"/><path d="M1159 969 1256 969 1256 1066 1159 1066Z" fill="#FFFFFF" fill-rule="evenodd"/><path d="M1062 969 1159 969 1159 1066 1062 1066Z" fill="#FFFFFF" fill-rule="evenodd"/><path d="M1256 969 1353 969 1353 1066 1256 1066Z" fill="#FFFFFF" fill-rule="evenodd" fill-opacity="0.2"/><path d="M1353 969 1450 969 1450 1066 1353 1066Z" fill="#FFFFFF" fill-rule="evenodd" fill-opacity="0.2"/><path d="M964 1066 1062 1066 1062 1164 964 1164Z" fill="#FFFFFF" fill-rule="evenodd" fill-opacity="0.2"/><path d="M1159 1066 1256 1066 1256 1164 1159 1164Z" fill="#FFFFFF" fill-rule="evenodd" fill-opacity="0.2"/><path d="M1062 1066 1159 1066 1159 1164 1062 1164Z" fill="#FFFFFF" fill-rule="evenodd"/><path d="M1256 1066 1353 1066 1353 1164 1256 1164Z" fill="#FFFFFF" fill-rule="evenodd" fill-opacity="0.2"/><path d="M1353 1066 1450 1066 1450 1164 1353 1164Z" fill="#FFFFFF" fill-rule="evenodd" fill-opacity="0.2"/><path d="M964 1164 1062 1164 1062 1261 964 1261Z" fill="#FFFFFF" fill-rule="evenodd" fill-opacity="0.2"/><path d="M1159 1164 1256 1164 1256 1261 1159 1261Z" fill="#FFFFFF" fill-rule="evenodd" fill-opacity="0.2"/><path d="M1062 1164 1159 1164 1159 1261 1062 1261Z" fill="#FFFFFF" fill-rule="evenodd" fill-opacity="0.2"/><path d="M1256 1164 1353 1164 1353 1261 1256 1261Z" fill="#FFFFFF" fill-rule="evenodd" fill-opacity="0.2"/><path d="M1353 1164 1450 1164 1450 1261 1353 1261Z" fill="#FFFFFF" fill-rule="evenodd" fill-opacity="0.2"/><path d="M964 1261 1062 1261 1062 1358 964 1358Z" fill="#FFFFFF" fill-rule="evenodd" fill-opacity="0.2"/><path d="M1159 1261 1256 1261 1256 1358 1159 1358Z" fill="#FFFFFF" fill-rule="evenodd" fill-opacity="0.2"/><path d="M1062 1261 1159 1261 1159 1358 1062 1358Z" fill="#FFFFFF" fill-rule="evenodd" fill-opacity="0.2"/><path d="M1256 1261 1353 1261 1353 1358 1256 1358Z" fill="#FFFFFF" fill-rule="evenodd" fill-opacity="0.2"/><path d="M1353 1261 1450 1261 1450 1358 1353 1358Z" fill="#FFFFFF" fill-rule="evenodd" fill-opacity="0.2"/><path d="M1159 1358 1256 1358 1256 1455 1159 1455Z" fill="#FFFFFF" fill-rule="evenodd" fill-opacity="0.2"/><path d="M1062 1358 1159 1358 1159 1455 1062 1455Z" fill="#FFFFFF" fill-rule="evenodd" fill-opacity="0.2"/><path d="M1256 1358 1353 1358 1353 1455 1256 1455Z" fill="#FFFFFF" fill-rule="evenodd" fill-opacity="0.2"/><path d="M1353 1358 1450 1358 1450 1455 1353 1455Z" fill="#FFFFFF" fill-rule="evenodd" fill-opacity="0.2"/><path d="M1159 1455 1256 1455 1256 1552 1159 1552Z" fill="#FFFFFF" fill-rule="evenodd" fill-opacity="0.2"/><path d="M1062 1455 1159 1455 1159 1552 1062 1552Z" fill="#FFFFFF" fill-rule="evenodd" fill-opacity="0.2"/><path d="M1256 1455 1353 1455 1353 1552 1256 1552Z" fill="#FFFFFF" fill-rule="evenodd" fill-opacity="0.2"/><path d="M1353 1455 1450 1455 1450 1552 1353 1552Z" fill="#FFFFFF" fill-rule="evenodd" fill-opacity="0.2"/><path d="M1159 1552 1256 1552 1256 1650 1159 1650Z" fill="#FFFFFF" fill-rule="evenodd" fill-opacity="0.2"/><path d="M1256 1552 1353 1552 1353 1650 1256 1650Z" fill="#FFFFFF" fill-rule="evenodd" fill-opacity="0.2"/><path d="M1353 1552 1450 1552 1450 1650 1353 1650Z" fill="#FFFFFF" fill-rule="evenodd" fill-opacity="0.2"/><path d="M1256 1650 1353 1650 1353 1747 1256 1747Z" fill="#FFFFFF" fill-rule="evenodd" fill-opacity="0.2"/><path d="M1353 1650 1450 1650 1450 1747 1353 1747Z" fill="#FFFFFF" fill-rule="evenodd" fill-opacity="0.2"/><path d="M1353 1747 1450 1747 1450 1844 1353 1844Z" fill="#FFFFFF" fill-rule="evenodd" fill-opacity="0.2"/><path d="M1742 969 1839 969 1839 1066 1742 1066Z" fill="#FFFFFF" fill-rule="evenodd" fill-opacity="0.2"/><path d="M1936 969 2034 969 2034 1066 1936 1066Z" fill="#FFFFFF" fill-rule="evenodd" fill-opacity="0.2"/><path d="M1839 969 1936 969 1936 1066 1839 1066Z" fill="#FFFFFF" fill-rule="evenodd" fill-opacity="0.2"/><path d="M2034 969 2131 969 2131 1066 2034 1066Z" fill="#FFFFFF" fill-rule="evenodd" fill-opacity="0.2"/><path d="M2131 969 2228 969 2228 1066 2131 1066Z" fill="#FFFFFF" fill-rule="evenodd" fill-opacity="0.2"/><path d="M1742 1066 1839 1066 1839 1164 1742 1164Z" fill="#FFFFFF" fill-rule="evenodd" fill-opacity="0.2"/><path d="M1936 1066 2034 1066 2034 1164 1936 1164Z" fill="#FFFFFF" fill-rule="evenodd" fill-opacity="0.2"/><path d="M1839 1066 1936 1066 1936 1164 1839 1164Z" fill="#FFFFFF" fill-rule="evenodd" fill-opacity="0.2"/><path d="M2034 1066 2131 1066 2131 1164 2034 1164Z" fill="#FFFFFF" fill-rule="evenodd" fill-opacity="0.2"/><path d="M2131 1066 2228 1066 2228 1164 2131 1164Z" fill="#FFFFFF" fill-rule="evenodd" fill-opacity="0.2"/><path d="M1742 1164 1839 1164 1839 1261 1742 1261Z" fill="#FFFFFF" fill-rule="evenodd" fill-opacity="0.2"/><path d="M1936 1164 2034 1164 2034 1261 1936 1261Z" fill="#FFFFFF" fill-rule="evenodd" fill-opacity="0.2"/><path d="M1839 1164 1936 1164 1936 1261 1839 1261Z" fill="#FFFFFF" fill-rule="evenodd" fill-opacity="0.2"/><path d="M2034 1164 2131 1164 2131 1261 2034 1261Z" fill="#FFFFFF" fill-rule="evenodd" fill-opacity="0.2"/><path d="M2131 1164 2228 1164 2228 1261 2131 1261Z" fill="#FFFFFF" fill-rule="evenodd" fill-opacity="0.2"/><path d="M1742 1261 1839 1261 1839 1358 1742 1358Z" fill="#FFFFFF" fill-rule="evenodd" fill-opacity="0.2"/><path d="M1936 1261 2034 1261 2034 1358 1936 1358Z" fill="#FFFFFF" fill-rule="evenodd" fill-opacity="0.2"/><path d="M1839 1261 1936 1261 1936 1358 1839 1358Z" fill="#FFFFFF" fill-rule="evenodd" fill-opacity="0.2"/><path d="M2034 1261 2131 1261 2131 1358 2034 1358Z" fill="#FFFFFF" fill-rule="evenodd" fill-opacity="0.2"/><path d="M1742 1358 1839 1358 1839 1455 1742 1455Z" fill="#FFFFFF" fill-rule="evenodd" fill-opacity="0.2"/><path d="M1936 1358 2034 1358 2034 1455 1936 1455Z" fill="#FFFFFF" fill-rule="evenodd" fill-opacity="0.2"/><path d="M1839 1358 1936 1358 1936 1455 1839 1455Z" fill="#FFFFFF" fill-rule="evenodd" fill-opacity="0.2"/><path d="M2034 1358 2131 1358 2131 1455 2034 1455Z" fill="#FFFFFF" fill-rule="evenodd" fill-opacity="0.2"/><path d="M1742 1455 1839 1455 1839 1552 1742 1552Z" fill="#FFFFFF" fill-rule="evenodd" fill-opacity="0.2"/><path d="M1936 1455 2034 1455 2034 1552 1936 1552Z" fill="#FFFFFF" fill-rule="evenodd" fill-opacity="0.2"/><path d="M1839 1455 1936 1455 1936 1552 1839 1552Z" fill="#FFFFFF" fill-rule="evenodd" fill-opacity="0.2"/><path d="M1742 1552 1839 1552 1839 1650 1742 1650Z" fill="#FFFFFF" fill-rule="evenodd" fill-opacity="0.2"/><path d="M1936 1552 2034 1552 2034 1650 1936 1650Z" fill="#FFFFFF" fill-rule="evenodd" fill-opacity="0.2"/><path d="M1839 1552 1936 1552 1936 1650 1839 1650Z" fill="#FFFFFF" fill-rule="evenodd" fill-opacity="0.2"/><path d="M1742 1650 1839 1650 1839 1747 1742 1747Z" fill="#FFFFFF" fill-rule="evenodd" fill-opacity="0.2"/><path d="M1742 1747 1839 1747 1839 1844 1742 1844Z" fill="#FFFFFF" fill-rule="evenodd" fill-opacity="0.2"/><path d="M1839 1650 1936 1650 1936 1747 1839 1747Z" fill="#FFFFFF" fill-rule="evenodd" fill-opacity="0.2"/><path d="M2034 1455 2131 1455 2131 1552 2034 1552Z" fill="#FFFFFF" fill-rule="evenodd" fill-opacity="0.2"/><path d="M2131 1261 2228 1261 2228 1358 2131 1358Z" fill="#FFFFFF" fill-rule="evenodd" fill-opacity="0.2"/><path d="M1450 969 1548 969 1548 1066 1450 1066Z" fill-rule="evenodd"/><path d="M1548 1066 1645 1066 1645 1164 1548 1164Z" fill-rule="evenodd"/><path d="M1742 872 1839 872 1839 969 1742 969Z" fill-rule="evenodd"/><path d="M1645 969 1742 969 1742 1066 1645 1066Z" fill-rule="evenodd"/><path d="M1450 1066 1548 1066 1548 1164 1450 1164Z" fill="#FFFFFF" fill-rule="evenodd" fill-opacity="0.2"/><path d="M1548 1164 1645 1164 1645 1261 1548 1261Z" fill="#FFFFFF" fill-rule="evenodd" fill-opacity="0.2"/><path d="M1645 1066 1742 1066 1742 1164 1645 1164Z" fill="#FFFFFF" fill-rule="evenodd" fill-opacity="0.2"/><path d="M1450 1164 1548 1164 1548 1261 1450 1261Z" fill="#FFFFFF" fill-rule="evenodd" fill-opacity="0.2"/><path d="M1548 1261 1645 1261 1645 1358 1548 1358Z" fill="#FFFFFF" fill-rule="evenodd" fill-opacity="0.2"/><path d="M1645 1164 1742 1164 1742 1261 1645 1261Z" fill="#FFFFFF" fill-rule="evenodd" fill-opacity="0.2"/><path d="M1450 1261 1548 1261 1548 1358 1450 1358Z" fill="#FFFFFF" fill-rule="evenodd" fill-opacity="0.2"/><path d="M1548 1358 1645 1358 1645 1455 1548 1455Z" fill="#FFFFFF" fill-rule="evenodd" fill-opacity="0.2"/><path d="M1645 1261 1742 1261 1742 1358 1645 1358Z" fill="#FFFFFF" fill-rule="evenodd" fill-opacity="0.2"/><path d="M1450 1358 1548 1358 1548 1455 1450 1455Z" fill="#FFFFFF" fill-rule="evenodd" fill-opacity="0.2"/><path d="M1548 1455 1645 1455 1645 1552 1548 1552Z" fill="#FFFFFF" fill-rule="evenodd" fill-opacity="0.2"/><path d="M1645 1358 1742 1358 1742 1455 1645 1455Z" fill="#FFFFFF" fill-rule="evenodd" fill-opacity="0.2"/><path d="M1450 1455 1548 1455 1548 1552 1450 1552Z" fill="#FFFFFF" fill-rule="evenodd" fill-opacity="0.2"/><path d="M1548 1552 1645 1552 1645 1650 1548 1650Z" fill="#FFFFFF" fill-rule="evenodd" fill-opacity="0.2"/><path d="M1645 1455 1742 1455 1742 1552 1645 1552Z" fill="#FFFFFF" fill-rule="evenodd" fill-opacity="0.2"/><path d="M1450 1552 1548 1552 1548 1650 1450 1650Z" fill="#FFFFFF" fill-rule="evenodd" fill-opacity="0.2"/><path d="M1548 1650 1645 1650 1645 1747 1548 1747Z" fill="#FFFFFF" fill-rule="evenodd" fill-opacity="0.2"/><path d="M1645 1552 1742 1552 1742 1650 1645 1650Z" fill="#FFFFFF" fill-rule="evenodd" fill-opacity="0.2"/><path d="M1450 1650 1548 1650 1548 1747 1450 1747Z" fill="#FFFFFF" fill-rule="evenodd" fill-opacity="0.2"/><path d="M1548 1747 1645 1747 1645 1844 1548 1844Z" fill="#FFFFFF" fill-rule="evenodd" fill-opacity="0.2"/><path d="M1645 1650 1742 1650 1742 1747 1645 1747Z" fill="#FFFFFF" fill-rule="evenodd" fill-opacity="0.2"/><path d="M1450 1747 1548 1747 1548 1844 1450 1844Z" fill="#FFFFFF" fill-rule="evenodd" fill-opacity="0.2"/><path d="M1548 1844 1645 1844 1645 1941 1548 1941Z" fill="#FFFFFF" fill-rule="evenodd" fill-opacity="0.2"/><path d="M1645 1747 1742 1747 1742 1844 1645 1844Z" fill="#FFFFFF" fill-rule="evenodd" fill-opacity="0.2"/><path d="M1450 1844 1548 1844 1548 1941 1450 1941Z" fill="#FFFFFF" fill-rule="evenodd" fill-opacity="0.2"/><path d="M1548 1941 1645 1941 1645 2038 1548 2038Z" fill="#FFFFFF" fill-rule="evenodd" fill-opacity="0.2"/><path d="M1645 1844 1742 1844 1742 1941 1645 1941Z" fill="#FFFFFF" fill-rule="evenodd" fill-opacity="0.2"/><path d="M1450 1941 1548 1941 1548 2038 1450 2038Z" fill-rule="evenodd"/><path d="M1548 2038 1645 2038 1645 2136 1548 2136Z" fill-rule="evenodd"/><path d="M1645 1941 1742 1941 1742 2038 1645 2038Z" fill-rule="evenodd"/><path d="M1839 775 1936 775 1936 872 1839 872Z" fill-rule="evenodd"/><path d="M1936 775 2034 775 2034 872 1936 872Z" fill-rule="evenodd"/><path d="M2034 775 2131 775 2131 872 2034 872Z" fill-rule="evenodd"/></g></svg>