<?xml version="1.0" encoding="UTF-8"?>
<svg id="Layer_1" data-name="Layer 1" xmlns="http://www.w3.org/2000/svg" version="1.1" viewBox="0 0 250 234.375">
  <defs>
    <style>
      .cls-1 {
        fill: #bcbec0;
      }

      .cls-1, .cls-2, .cls-3, .cls-4 {
        stroke-width: 0px;
      }

      .cls-2 {
        fill: #e6e7e8;
      }

      .cls-3 {
        fill: #fff;
      }

      .cls-4 {
        fill: #231f20;
      }
    </style>
  </defs>
  <polygon id="path-04" class="cls-1" points="242.18333 132.81667 242.18333 125 234.375 125 234.375 117.18333 226.56667 117.18333 218.75 117.18333 218.75 109.375 210.93333 109.375 203.125 109.375 203.125 101.56667 195.31667 101.56667 195.31667 93.75 187.5 93.75 187.5 85.93333 179.68333 85.93333 179.68333 78.125 171.875 78.125 171.875 70.31667 164.06667 70.31667 164.06667 62.5 164.06667 54.68333 156.25 54.68333 156.25 46.875 156.25 39.06667 156.25 31.25 148.43333 31.25 148.43333 23.43333 140.625 23.43333 140.625 15.625 132.81667 15.625 132.81667 7.81667 125 7.81667 125 0 117.18333 0 109.375 0 101.56667 0 93.75 0 85.93333 0 78.125 0 70.31667 0 62.5 0 62.5 7.81667 54.68333 7.81667 54.68333 15.625 46.875 15.625 46.875 23.43333 39.06667 23.43333 39.06667 31.25 39.06667 39.06667 39.06667 46.875 39.06667 54.68333 39.06667 62.5 31.25 62.5 31.25 70.31667 31.25 78.125 31.25 85.93333 31.25 93.75 31.25 101.56667 23.43333 101.56667 15.625 101.56667 15.625 109.375 7.81667 109.375 7.81667 117.18333 0 117.18333 0 125 0 132.81667 7.81667 132.81667 7.81667 140.625 15.625 140.625 23.43333 140.625 31.25 140.625 39.06667 140.625 39.06667 148.43333 46.875 148.43333 46.875 156.25 46.875 164.06667 54.68333 164.06667 54.68333 171.875 54.68333 179.68333 62.5 179.68333 62.5 187.5 62.5 195.31667 70.31667 195.31667 70.31667 203.125 70.31667 210.93333 70.31667 218.75 78.125 218.75 78.125 226.56667 85.93333 226.56667 85.93333 234.375 93.75 234.375 101.56667 234.375 101.56667 226.56667 109.375 226.56667 117.18333 226.56667 117.18333 218.75 125 218.75 125 210.93333 132.81667 210.93333 140.625 210.93333 148.43333 210.93333 156.25 210.93333 164.06667 210.93333 164.06667 218.75 171.875 218.75 179.68333 218.75 187.5 218.75 195.31667 218.75 195.31667 210.93333 203.125 210.93333 203.125 203.125 203.125 195.31667 210.93333 195.31667 210.93333 187.5 218.75 187.5 218.75 179.68333 226.56667 179.68333 234.375 179.68333 234.375 171.875 242.18333 171.875 242.18333 164.06667 250 164.06667 250 156.25 250 148.43333 250 140.625 250 132.81667 242.18333 132.81667"/>
  <path id="path-03" class="cls-3" d="M234.375,132.81667v-7.81667h-15.625v-7.81667h-15.625v-7.80833h-7.80833v-7.80833h-7.81667v-7.81667h-7.81667v-7.81667h-7.80833v-7.80833h-7.80833v-7.80833h-7.81667v-15.63334h-7.81667v-23.43333h-7.80833v-7.81667h-7.80833v-7.80833h-7.81667v-7.80833h-62.5v7.80833h-7.81667v7.80833h-7.80833v39.06667h-7.80833v39.06667h-7.81667v7.80833h-15.625v7.80833h-7.80833v7.81667l1.83071,5.71848h23.43333l5.98596,2.09819,1.55505,5.76443,6.25328,2.0439,1.97201,6.49178,5.83632,1.31655,2.23378,6.75355-.15519,7.13894,5.73808,1.74085,1.55605,6.79483.62078,7.44932,5.63984,1.3725,1.96467,7.81667.15519,6.48545,5.68846,1.33122,1.76086,6.32292v15.625l6.04747,1.48541,2.02264,6.1191,5.79404.31039h6.15592l1.66075-6.42949,6.30378-1.42846h7.80833v-7.81667h7.81667l1.50455-6.37987,7.81667-2.00062h23.43333l7.81667,2.00062,1.33123,5.91429h22.10627l6.44947.77597v-7.80833l1.36303-6.69026,6.24149-1.48642,1.56684-6.33025,6.34807-1.89504,1.46026-5.92163,6.14426-1.83808,1.67241-5.97024,6.34907-1.63427h7.80833l1.4676-6.17406,6.29211-1.43046-.77597-6.38621-.62078-7.81667.62078-7.80833.46558-5.92376-5.98173-1.88457ZM101.56667,109.375v-7.80833h7.80833v-7.81667h15.625v-7.81667h7.81667v7.81667h-7.81667v7.81667h-15.625v7.80833h-7.80833v15.625h23.43333v-7.81667h15.625v7.81667l-7.8125,1.69969-7.8125-1.69969,1.65672,3.90834-1.65672,3.90834-7.81667,2.10549h-7.80833l-7.80833-2.10549-1.83452-3.90834,1.83452-3.90834-3.90834,2.18336-3.90834-2.18336v-15.625h7.81667Z"/>
  <g id="path-02">
    <polygon class="cls-4" points="87.47905 45.44231 85.93333 39.06667 82.02916 37.21983 78.125 39.06667 78.125 46.875 78.125 54.68333 78.125 62.5 85.93333 62.5 85.93333 70.31667 93.75 70.31667 93.75 62.5 93.75 54.68333 93.75 46.875 87.47905 45.44231"/>
    <polygon class="cls-4" points="78.125 78.125 70.31667 78.125 70.31667 85.93333 70.31667 93.75 70.31667 101.56667 75.70963 103.64452 78.125 109.375 82.02916 111.22209 85.93333 109.375 85.93333 101.56667 85.93333 93.75 85.93333 85.93333 78.125 85.93333 78.125 78.125"/>
    <polygon class="cls-4" points="70.31667 70.31667 70.31667 62.5 70.31667 54.68333 70.31667 46.875 65.06878 44.79741 62.5 39.06667 58.59166 37.21983 54.68333 39.06667 54.68333 46.875 54.68333 54.68333 54.68333 62.5 62.5 62.5 62.5 70.31667 70.31667 70.31667"/>
  </g>
  <g id="path-01">
    <polygon class="cls-2" points="234.375 132.81667 234.375 140.625 234.375 148.43333 234.375 156.25 234.375 164.06667 242.18333 164.06667 242.18333 156.25 242.18333 148.43333 242.18333 140.625 242.18333 132.81667 234.375 132.81667"/>
    <polygon class="cls-2" points="226.56667 156.25 218.75 156.25 210.93333 156.25 203.125 156.25 203.125 148.43333 195.31667 148.43333 187.5 148.43333 179.68333 148.43333 179.68333 140.625 171.875 140.625 171.875 132.81667 164.06667 132.81667 156.25 132.81667 156.25 140.625 164.06667 140.625 164.06667 148.43333 171.875 148.43333 171.875 156.25 179.68333 156.25 179.68333 164.06667 187.5 164.06667 187.5 171.875 195.31667 171.875 195.31667 179.68333 203.125 179.68333 203.125 187.5 210.93333 187.5 210.93333 179.68333 218.75 179.68333 218.75 171.875 226.56667 171.875 234.375 171.875 234.375 164.06667 226.56667 164.06667 226.56667 156.25"/>
    <rect class="cls-2" x="195.31667" y="187.5" width="7.80833" height="7.81667"/>
    <polygon class="cls-2" points="187.5 203.125 179.68333 203.125 171.875 203.125 164.06667 203.125 164.06667 210.93333 171.875 210.93333 179.68333 210.93333 187.5 210.93333 195.31667 210.93333 195.31667 203.125 195.31667 195.31667 187.5 195.31667 187.5 203.125"/>
    <polygon class="cls-2" points="156.25 195.31667 156.25 187.5 148.43333 187.5 148.43333 179.68333 140.625 179.68333 140.625 171.875 132.81667 171.875 132.81667 164.06667 125 164.06667 125 171.875 125 179.68333 125 187.5 132.81667 187.5 132.81667 195.31667 125 195.31667 125 203.125 132.81667 203.125 140.625 203.125 148.43333 203.125 156.25 203.125 164.06667 203.125 164.06667 195.31667 156.25 195.31667"/>
    <rect class="cls-2" x="148.43333" y="125" width="7.81667" height="7.81667"/>
    <polygon class="cls-2" points="140.625 132.81667 140.625 125 132.81667 125 125 125 125 132.81667 132.81667 132.81667 140.625 132.81667"/>
    <polygon class="cls-2" points="125 148.43333 117.18333 148.43333 117.18333 156.25 117.18333 164.06667 125 164.06667 125 156.25 125 148.43333"/>
    <polygon class="cls-2" points="109.375 203.125 109.375 195.31667 101.56667 195.31667 101.56667 203.125 101.56667 210.93333 101.56667 218.75 109.375 218.75 117.18333 218.75 117.18333 210.93333 125 210.93333 125 203.125 117.18333 203.125 109.375 203.125"/>
    <polygon class="cls-2" points="109.375 140.625 117.18333 140.625 125 140.625 125 132.81667 117.18333 132.81667 109.375 132.81667 101.56667 132.81667 101.56667 140.625 109.375 140.625"/>
    <polygon class="cls-2" points="101.56667 179.68333 93.75 179.68333 93.75 187.5 93.75 195.31667 101.56667 195.31667 101.56667 187.5 101.56667 179.68333"/>
    <rect class="cls-2" x="93.75" y="125" width="7.81667" height="7.81667"/>
    <polygon class="cls-2" points="85.93333 218.75 85.93333 226.56667 93.75 226.56667 101.56667 226.56667 101.56667 218.75 93.75 218.75 85.93333 218.75"/>
    <rect class="cls-2" x="85.93333" y="39.06667" width="7.81667" height="7.80833"/>
    <polygon class="cls-2" points="85.93333 203.125 85.93333 195.31667 78.125 195.31667 78.125 203.125 78.125 210.93333 78.125 218.75 85.93333 218.75 85.93333 210.93333 85.93333 203.125"/>
    <rect class="cls-2" x="78.125" y="109.375" width="7.80833" height="7.80833"/>
    <rect class="cls-2" x="78.125" y="31.25" width="7.80833" height="7.81667"/>
    <polygon class="cls-2" points="78.125 179.68333 70.31667 179.68333 70.31667 187.5 70.31667 195.31667 78.125 195.31667 78.125 187.5 78.125 179.68333"/>
    <rect class="cls-2" x="70.31667" y="101.56667" width="7.80833" height="7.80833"/>
    <polygon class="cls-2" points="70.31667 164.06667 62.5 164.06667 62.5 171.875 62.5 179.68333 70.31667 179.68333 70.31667 171.875 70.31667 164.06667"/>
    <rect class="cls-2" x="62.5" y="39.06667" width="7.81667" height="7.80833"/>
    <polygon class="cls-2" points="62.5 148.43333 54.68333 148.43333 54.68333 156.25 54.68333 164.06667 62.5 164.06667 62.5 156.25 62.5 148.43333"/>
    <rect class="cls-2" x="54.68333" y="31.25" width="7.81667" height="7.81667"/>
    <rect class="cls-2" x="46.875" y="140.625" width="7.80833" height="7.80833"/>
    <rect class="cls-2" x="39.06667" y="132.81667" width="7.80833" height="7.80833"/>
    <polygon class="cls-2" points="31.25 125 23.43333 125 15.625 125 7.81667 125 7.81667 132.81667 15.625 132.81667 23.43333 132.81667 31.25 132.81667 39.06667 132.81667 39.06667 125 31.25 125"/>
  </g>
</svg>